<svg width="50" height="50" viewBox="0 0 50 50" fill="none" xmlns="http://www.w3.org/2000/svg">
<g clip-path="url(#clip0_2953_4020)">
<path d="M45.066 32.1251C46.7893 31.6588 48.0037 29.913 48 27.9072V20.2256C47.9951 20.1732 47.9858 20.1215 47.9724 20.0711L47.9471 16.754C47.9446 14.3587 46.2298 12.4174 44.1138 12.4146H39.5398C37.9235 10.9353 35.9505 10.0424 33.8788 9.85261C35.5331 8.37493 36.4988 6.12125 36.5 3.73577C36.5 3.25648 36.1567 2.86788 35.7333 2.86788H31.1333C29.047 2.86843 27.0735 3.93961 25.7667 5.7805V2H24.2333V13.1653L23.5525 12.5231C19.7726 8.94817 14.2859 8.90271 10.4602 12.4146H5.88624C3.77187 12.4146 2.05674 14.3527 2.05291 16.7462L2.02991 20.0589C2.01496 20.1132 2.0049 20.169 2.00001 20.2256V27.9072C1.99627 29.913 3.21067 31.6588 4.93404 32.1251L8.42927 33.0798C8.46147 33.1805 8.49597 33.2803 8.52971 33.3801L2.58651 35.0039C2.24237 35.098 2.00001 35.4467 2.00001 35.8475V42.7905C2.00001 43.2698 2.34328 43.6584 2.76667 43.6584C2.82734 43.6584 2.88781 43.6503 2.94684 43.6341L11.7068 41.2405L12.6038 43.372C14.3054 47.4181 18.5821 49.1365 22.1563 47.2102C23.3036 46.592 24.2849 45.6397 25 44.4508C27.2279 48.1548 31.6865 49.1131 34.9586 46.5911C36.0088 45.7816 36.8501 44.6707 37.3962 43.372L38.2932 41.2405L47.0532 43.6341C47.1121 43.6503 47.1727 43.6585 47.2333 43.6584C47.6567 43.6584 48 43.2698 48 42.7905V35.8475C48 35.4467 47.7576 35.098 47.4135 35.0039L41.4718 33.3801C41.5048 33.2803 41.5401 33.1805 41.5723 33.0798L45.066 32.1251ZM44.1138 14.1504C45.3857 14.1532 46.415 15.322 46.4138 16.7618L46.4429 20.2169C45.7862 19.6592 44.9876 19.3577 44.1667 19.3577H43.2183C43.2114 19.3151 43.1976 19.2709 43.1907 19.2318C43.1178 18.8039 43.0238 18.3809 42.9093 17.9647C42.8986 17.9265 42.8833 17.8901 42.8725 17.8519C42.7623 17.479 42.6356 17.1126 42.493 16.754C42.4463 16.6334 42.3941 16.5162 42.3397 16.3982C42.2147 16.1083 42.0798 15.8263 41.9341 15.5494C41.8782 15.4426 41.8253 15.335 41.7662 15.2309C41.5617 14.8655 41.3396 14.5133 41.1008 14.1755L41.0916 14.1504H44.1138ZM43.3877 21.0934H44.1667C44.8683 21.0975 45.5293 21.4672 45.9584 22.0958C45.5371 22.8804 44.8593 23.4453 44.0724 23.6676L43.3149 23.875C43.3655 23.0792 43.4 22.2868 43.4 21.5109C43.4 21.3764 43.3931 21.234 43.3877 21.0934ZM31.1333 4.60365H34.9122C34.5277 7.5908 32.2667 9.80715 29.6 9.81095H25.8211C26.2057 6.82381 28.4667 4.60745 31.1333 4.60365ZM25.7667 11.5467H27.6649C27.2387 11.8382 26.8318 12.1645 26.4475 12.5231L25.7667 13.1653V11.5467ZM16.9372 11.5469C18.9959 11.5472 20.9896 12.3643 22.5712 13.8562L23.528 14.7579C24.3808 15.562 25.6192 15.562 26.472 14.7579L27.4288 13.8553C31.1917 10.3471 36.7544 10.9562 39.8535 15.2159C41.144 16.9898 41.855 19.2129 41.8667 21.5109C41.8667 22.4239 41.8291 23.3595 41.7555 24.3011L32.659 26.7868L25 28.8792L8.24681 24.3046C8.17167 23.3499 8.13334 22.4126 8.13334 21.5109C8.13382 16.0073 12.0754 11.5463 16.9372 11.5469ZM3.58624 16.754C3.58624 15.316 4.61597 14.1504 5.88624 14.1504H8.90844L8.89541 14.1712C8.65659 14.5089 8.43445 14.8612 8.22994 15.2265C8.17091 15.3307 8.11801 15.4383 8.06204 15.5451C7.91637 15.8219 7.78144 16.104 7.65647 16.3938C7.60587 16.5119 7.55374 16.629 7.50314 16.7497C7.36044 17.1096 7.23375 17.4775 7.12364 17.8519C7.11291 17.8901 7.09757 17.9265 7.08684 17.9647C6.97242 18.3809 6.8784 18.8039 6.80547 19.2318C6.79857 19.2744 6.78477 19.3186 6.77787 19.3577H5.83334C5.01368 19.3579 4.21615 19.6587 3.56017 20.2151L3.58624 16.754ZM6.68741 23.875L5.92764 23.6676C5.14066 23.4453 4.46292 22.8805 4.04164 22.0958C4.47069 21.4672 5.13165 21.0975 5.83334 21.0934H6.61227C6.60691 21.234 6.60001 21.3764 6.60001 21.5109C6.60001 22.2781 6.63527 23.0731 6.68741 23.875ZM5.06667 41.2657L3.53334 41.6883V36.5305L5.06667 36.1078V41.2657ZM11.9513 39.3884L6.60001 40.8499V35.693L8.90001 35.0646V36.7153H10.4333V34.6454L11.8593 34.2558L12.2956 34.1369L12.7333 34.2566V35.8475H14.2667V34.6749L19.1266 36.0037L21.7332 36.7153L11.9513 39.3884ZM36.0124 42.6256C34.6738 45.8066 31.3106 47.1568 28.5007 45.6415C27.5004 45.1021 26.6628 44.2409 26.0925 43.1655C25.7303 42.4824 24.9476 42.2611 24.3442 42.6711C24.165 42.7928 24.015 42.9626 23.9075 43.1655C22.3066 46.1866 18.8453 47.1665 16.1765 45.3543C15.2257 44.7085 14.4643 43.7597 13.9876 42.6265L13.2301 40.8248L25 37.6084L29.6514 38.879L36.7699 40.8239L36.0124 42.6256ZM44.9333 36.1078L46.4667 36.527V41.6883L44.9333 41.2691V36.1078ZM43.4 35.6947V40.8517L35.2457 38.6247L25.1802 35.8718L14.7313 33.0164L12.4006 32.3759L11.5389 32.1407L9.18214 31.4968L5.29667 30.4379C4.26139 30.1597 3.53123 29.1117 3.53334 27.9072V24.131C3.97849 24.5917 4.49953 24.9482 5.06667 25.1803V27.1686H6.60001V25.6377L7.90334 25.9935L8.90001 26.266V28.0365H10.4333V26.6852L12.7333 27.3136V28.9044H14.2667V27.7327L16.5667 28.3611V30.6402H18.1V28.7794L20.4 29.4086V31.508H21.9333V29.8269L24.2333 30.4553V32.3759H25.7667V30.8745L28.0667 31.5028V33.2438H29.6V31.922L31.9 32.5504V34.1117H33.4333V32.9696L35.7333 33.5979V35.8475H37.2667V34.0171L37.5243 34.0874L38.6505 34.3955L39.5667 34.6454V36.7153H41.1V35.0664L43.4 35.6947ZM38.6766 32.0869L38.4581 32.1468L37.7014 32.3534L28.2675 29.7723L31.9 28.7794V29.7723H33.4333V28.3611L34.8087 27.9844L35.7333 27.7319V28.9044H37.2667V27.3136L39.5667 26.6852V28.0365H41.1V26.266L43.4 25.6377V27.1686H44.9333V25.1794C45.5004 24.9476 46.0215 24.5913 46.4667 24.131V27.9072C46.4688 29.1117 45.7386 30.1597 44.7033 30.4379L38.6766 32.0869Z" fill="#CC78D9"/>
</g>
<defs>
<clipPath id="clip0_2953_4020">
<rect width="50" height="50" fill="white"/>
</clipPath>
</defs>
</svg>
