<svg width="50" height="51" viewBox="0 0 50 51" fill="none" xmlns="http://www.w3.org/2000/svg">
<g clip-path="url(#clip0_22_265)">
<path d="M47.9458 13.617L47.5583 13.1316C46.6208 11.9608 46.0646 10.5316 45.9041 9.04614C47.0771 8.59614 47.9166 7.46489 47.9166 6.13569C47.9167 3.26499 45.5792 0.92749 42.7083 0.92749H26.0417C23.1709 0.92749 20.8334 3.26499 20.8334 6.13579C20.8334 7.46499 21.6729 8.59624 22.8459 9.04624C22.6854 10.5317 22.1292 11.9587 21.1938 13.1317L20.8043 13.6171C19.4792 15.2754 18.75 17.3545 18.75 19.4754V45.7192C18.75 48.59 21.0875 50.9275 23.9583 50.9275H44.7916C47.6625 50.9275 50 48.59 50 45.7192V19.4754C50 17.3525 49.2708 15.2733 47.9458 13.617ZM26.0417 3.01079H42.7084C44.4313 3.01079 45.8334 4.41284 45.8334 6.13579C45.8334 6.70874 45.3688 7.17329 44.7959 7.17749C44.7938 7.17749 44.7917 7.17749 44.7917 7.17749H23.9583C23.9562 7.17749 23.9541 7.17749 23.9541 7.17749C23.3812 7.17329 22.9166 6.70874 22.9166 6.13579C22.9167 4.41294 24.3187 3.01079 26.0417 3.01079ZM47.9167 45.7212C47.9167 47.4442 46.5146 48.8462 44.7917 48.8462H23.9583C22.2354 48.8462 20.8333 47.4442 20.8333 45.7212V19.4775C20.8333 17.8275 21.4021 16.2087 22.4312 14.9212L22.8208 14.4358C24.0083 12.9503 24.7458 11.142 24.9458 9.26079H43.8041C44.0062 11.142 44.7416 12.9503 45.9312 14.4358L46.3187 14.9212C47.3499 16.2108 47.9166 17.8275 47.9166 19.4775V45.7212H47.9167Z" fill="#FF6D83"/>
<path d="M44.7917 21.7607H23.9583C23.3833 21.7607 22.9166 22.2274 22.9166 22.8024V37.3858C22.9166 37.9608 23.3833 38.4275 23.9583 38.4275H44.7916C45.3666 38.4275 45.8333 37.9608 45.8333 37.3858V22.8024C45.8333 22.2274 45.3667 21.7607 44.7917 21.7607ZM43.75 36.3442H25V23.8441H43.75V36.3442Z" fill="#FF6D83"/>
<path d="M8.3333 5.09424C3.43545 5.09424 0 13.2046 0 17.5942C0 21.0338 2.09375 23.9922 5.075 25.263L4.1667 46.7609C4.1667 49.0589 6.03545 50.9276 8.3334 50.9276C10.6313 50.9276 12.5001 49.0589 12.5021 46.7172L11.5938 25.2609C14.573 23.9901 16.6668 21.0339 16.6668 17.5942C16.6667 13.2046 13.2313 5.09424 8.3333 5.09424ZM8.3333 48.8442C7.18535 48.8442 6.25 47.9088 6.25 46.8047L7.13955 25.8067C7.5333 25.863 7.925 25.9275 8.3333 25.9275C8.74375 25.9275 9.13535 25.863 9.5291 25.8067L10.4166 46.7609C10.4167 47.9088 9.48125 48.8442 8.3333 48.8442ZM8.3333 23.8442C4.8875 23.8442 2.0833 21.04 2.0833 17.5942C2.0833 13.7692 5.1708 7.17754 8.3333 7.17754C11.4958 7.17754 14.5833 13.7692 14.5833 17.5942C14.5833 21.04 11.7792 23.8442 8.3333 23.8442Z" fill="#FF6D83"/>
</g>
<defs>
<clipPath id="clip0_22_265">
<rect width="50" height="50" fill="white" transform="translate(0 0.92749)"/>
</clipPath>
</defs>
</svg>
