<svg width="20" height="20" viewBox="0 0 20 20" fill="none" xmlns="http://www.w3.org/2000/svg">
<path d="M16.586 1.70933C16.4374 1.62238 16.2578 1.60489 16.095 1.66143C14.424 2.24207 12.7581 2.81802 11.4233 3.27894C11.0026 2.82027 10.4362 2.49601 9.79781 2.3773C9.63188 1.41819 9.02127 0.589811 8.12204 0.143393L7.95709 0.0615246C7.6678 -0.0821232 7.31578 0.0343386 7.17102 0.321673C7.0263 0.609008 7.1436 0.958471 7.43304 1.10212L7.598 1.18399C8.10287 1.43463 8.46164 1.87841 8.60383 2.40081C7.36601 2.68209 6.42507 3.74351 6.33573 5.0344C4.42677 5.69307 2.40043 6.39312 0.39237 7.09092C0.157339 7.17256 3.90613e-05 7.3928 3.90613e-05 7.63996H0V13.845H0.000507796C0.000546857 14.0857 0.15144 14.3108 0.39323 14.3944L16.0958 19.8239C16.1585 19.8456 16.2236 19.8562 16.2885 19.8562C16.3586 19.8562 16.4283 19.8438 16.4943 19.8192C16.5102 19.8153 16.5301 19.8109 16.5535 19.8055C16.8773 19.7312 17.7377 19.5337 18.5163 18.8982C19.5004 18.0951 19.9994 16.9168 19.9994 15.3963V7.63996C19.9994 7.47932 19.9606 3.68367 16.586 1.70933ZM9.25752 3.4903C10.2267 3.4903 11.0153 4.27319 11.0153 5.23549C11.0153 6.19778 10.2267 6.98067 9.25752 6.98067C8.28829 6.98067 7.49976 6.19778 7.49976 5.23549C7.49976 4.27319 8.28829 3.4903 9.25752 3.4903ZM6.49768 6.21019C6.90224 7.33599 7.98638 8.14412 9.25752 8.14412C10.8729 8.14412 12.1871 6.83931 12.1871 5.23549C12.1871 4.90855 12.1317 4.59442 12.0311 4.30088C13.2542 3.87843 14.7268 3.36923 16.2175 2.85145C18.7971 4.52989 18.8275 7.6082 18.8275 7.63996C18.8275 10.3382 16.8695 11.9551 16.2069 12.4247L12.9666 11.2987C12.7874 11.2365 12.5889 11.2642 12.434 11.3734C12.2791 11.4824 12.1871 11.6593 12.1871 11.8478V14.2329C12.1871 14.5536 11.9243 14.8146 11.6012 14.8146C11.2781 14.8146 11.0153 14.5536 11.0153 14.2329V11.0334C11.0153 10.7856 10.8573 10.5651 10.6215 10.4838L2.36699 7.63814C3.76769 7.15274 5.15983 6.67189 6.49768 6.21019ZM9.84343 13.3182L1.17184 10.3287V8.45771L9.84343 11.4472V13.3182ZM1.17184 11.5603L9.87496 14.5606C10.0299 15.3667 10.7448 15.9781 11.6012 15.9781C12.0375 15.9781 12.4369 15.819 12.7445 15.5568L15.7026 16.5847V18.4559L1.17184 13.4317V11.5603ZM15.7026 15.352L13.3332 14.5287C13.3498 14.4325 13.3589 14.3337 13.3589 14.2329V12.6678L15.7026 13.4822V15.352ZM18.8275 15.3963C18.8275 16.9876 18.1869 18.0074 16.8745 18.4979V13.382C17.3048 13.0803 18.132 12.4207 18.8275 11.3991V15.3963Z" fill="#1D1D1D"/>
<path d="M16.0932 5.70081C16.4168 5.70081 16.6792 5.44036 16.6792 5.11909C16.6792 4.79782 16.4168 4.53738 16.0932 4.53738C15.7697 4.53738 15.5073 4.79782 15.5073 5.11909C15.5073 5.44036 15.7697 5.70081 16.0932 5.70081Z" fill="#1D1D1D"/>
<path d="M16.8745 8.41556C17.1981 8.41556 17.4604 8.15511 17.4604 7.83383C17.4604 7.51255 17.1981 7.25211 16.8745 7.25211C16.5509 7.25211 16.2886 7.51255 16.2886 7.83383C16.2886 8.15511 16.5509 8.41556 16.8745 8.41556Z" fill="#1D1D1D"/>
<path d="M14.9214 10.7425C15.245 10.7425 15.5073 10.4821 15.5073 10.1608C15.5073 9.83947 15.245 9.57901 14.9214 9.57901C14.5978 9.57901 14.3354 9.83947 14.3354 10.1608C14.3354 10.4821 14.5978 10.7425 14.9214 10.7425Z" fill="#1D1D1D"/>
<path d="M13.7495 8.02774C14.0731 8.02774 14.3354 7.7673 14.3354 7.44603C14.3354 7.12476 14.0731 6.86432 13.7495 6.86432C13.4259 6.86432 13.1636 7.12476 13.1636 7.44603C13.1636 7.7673 13.4259 8.02774 13.7495 8.02774Z" fill="#1D1D1D"/>
</svg>
