<svg width="51" height="51" viewBox="0 0 51 51" fill="none" xmlns="http://www.w3.org/2000/svg">
<g clip-path="url(#clip0_148_84)">
<path d="M47.26 40.1462L34.1822 35.89V31.4109C35.1162 30.0403 35.7459 28.4274 35.968 26.6815H38.3284C40.3896 26.6815 42.0666 25.0165 42.0666 22.97V18.9948C42.0666 18.2202 41.826 17.5005 41.4155 16.9048V16.2427C41.4155 7.77808 34.4794 0.891602 25.9538 0.891602C17.4282 0.891602 10.4921 7.77808 10.4921 16.2427V16.9048C10.0816 17.5006 9.84103 18.2203 9.84103 18.9948V22.97C9.84103 25.0165 11.518 26.6815 13.5793 26.6815H15.9397C16.1649 28.4517 16.8095 30.0848 17.7649 31.4676V35.8772L4.64754 40.1462C2.43872 40.8652 0.95459 42.899 0.95459 45.2068V50.5323H50.953V45.2068C50.953 42.899 49.4689 40.8652 47.26 40.1462ZM20.6945 34.3095C22.2274 35.2925 24.0286 35.8599 25.9538 35.8599C27.8957 35.8599 29.7111 35.2824 31.2527 34.2837V36.2906C30.1405 37.2424 27.8963 38.8147 25.9538 38.8147C24.0148 38.8147 21.7931 37.2451 20.6945 36.2953V34.3095ZM33.1277 17.8772C31.0048 17.5031 29.3872 15.6589 29.3872 13.4455H26.4576C26.4576 15.9281 24.4233 17.9478 21.9228 17.9478H18.7799V16.5461C18.7799 12.6187 21.9981 9.42359 25.9538 9.42359C29.9095 9.42359 33.1277 12.6187 33.1277 16.5461V17.8772ZM18.7799 20.9578V20.8566H21.9228C24.3787 20.8566 26.5613 19.6729 27.9224 17.8501C29.1348 19.4739 30.999 20.5903 33.1277 20.8149V25.2758C33.1277 25.8474 33.0671 26.4038 32.9559 26.9401H27.6349V29.8487H31.7117C30.403 31.7301 28.3094 32.9512 25.9539 32.9512C21.9983 32.9512 18.78 29.5081 18.78 25.2758V20.9578H18.7799ZM39.137 22.97C39.137 23.4127 38.7742 23.7729 38.3283 23.7729H36.0573V18.192H38.3283C38.7742 18.192 39.137 18.5521 39.137 18.9948V22.97ZM25.9538 3.80024C32.54 3.80024 37.9559 8.87066 38.4493 15.2863C38.4091 15.2851 38.3689 15.2833 38.3283 15.2833H35.9774C35.3501 10.346 31.0942 6.51496 25.9538 6.51496C20.8134 6.51496 16.5575 10.346 15.9301 15.2833H13.5792C13.5387 15.2833 13.4984 15.2851 13.4582 15.2863C13.9517 8.87066 19.3676 3.80024 25.9538 3.80024ZM12.7706 22.97V18.9948C12.7706 18.5521 13.1334 18.192 13.5793 18.192H15.8503V23.7729H13.5793C13.1334 23.7729 12.7706 23.4127 12.7706 22.97ZM48.0234 47.6237H40.8668V44.6181H37.9372V47.6237H13.9704V44.6181H11.0408V47.6237H3.88418V45.2068C3.88418 44.1594 4.5577 43.2365 5.5602 42.9102L18.8775 38.5761C20.1411 39.646 22.9769 41.7233 25.9539 41.7233C28.9245 41.7233 31.7783 39.653 33.0543 38.5839L46.3475 42.9103C47.3499 43.2365 48.0234 44.1595 48.0234 45.2068V47.6237Z" fill="#1D1D1D"/>
</g>
<defs>
<clipPath id="clip0_148_84">
<rect width="49.9984" height="49.6407" fill="white" transform="translate(0.95459 0.891602)"/>
</clipPath>
</defs>
</svg>
