<svg width="20" height="18" viewBox="0 0 20 18" fill="none" xmlns="http://www.w3.org/2000/svg">
<path d="M18.2357 5.94953V2.32616H15.8927V0H12.3784V2.32616H10.0355V4.52937C8.98994 3.85967 7.74687 3.48923 6.48205 3.48923C2.90783 3.48923 0 6.3589 0 9.88616V10.4673H1.27181C1.20683 10.6493 1.17146 10.8454 1.17146 11.0492C1.17146 11.253 1.20683 11.4488 1.27181 11.6308H0V13.3754C0 14.3374 0.788272 15.12 1.75718 15.12H9.25091L9.51124 17.4462H18.7628L19.9994 5.81539H19.1142C18.8092 5.81539 18.5139 5.86234 18.2357 5.94953ZM17.0642 3.48923V6.64901C16.6569 7.04546 16.3641 7.55997 16.2447 8.14154H15.8927V3.48923H17.0642ZM14.7213 1.16308V8.14154H13.5498V1.16308H14.7213ZM12.3784 3.48923V8.14154H12.0264C11.907 7.55997 11.6142 7.04542 11.2069 6.64897V3.48923H12.3784ZM1.20402 9.30462C1.49853 6.69138 3.75323 4.65231 6.48205 4.65231C7.76515 4.65231 9.01927 5.11526 9.97264 5.93123C9.71281 5.85614 9.43912 5.81539 9.15695 5.81539H8.2096L8.60008 9.30462H1.20402ZM8.86042 11.6308H2.92864C2.60567 11.6308 2.34291 11.3699 2.34291 11.0492C2.34291 10.7286 2.60567 10.4677 2.92864 10.4677H8.73023L8.86042 11.6308ZM1.75718 13.9569C1.43421 13.9569 1.17146 13.6961 1.17146 13.3754V12.7939H8.99057L9.12072 13.9569H1.75718ZM17.7085 16.2831H10.5597L9.52272 7.01665C10.2405 7.16863 10.8064 7.75874 10.9006 8.50675L11.0011 9.30466H17.2701L17.3706 8.50671C17.4623 7.77832 18.0012 7.19968 18.6923 7.02953L17.7085 16.2831Z" fill="#1D1D1D"/>
<path d="M14.1356 10.4677C12.8438 10.4677 11.7927 11.5112 11.7927 12.7939C11.7927 14.0765 12.8438 15.1201 14.1356 15.1201C15.4275 15.1201 16.4785 14.0765 16.4785 12.7939C16.4785 11.5112 15.4275 10.4677 14.1356 10.4677ZM14.1356 13.957C13.4897 13.957 12.9642 13.4352 12.9642 12.7939C12.9642 12.1526 13.4897 11.6308 14.1356 11.6308C14.7816 11.6308 15.3071 12.1526 15.3071 12.7939C15.3071 13.4352 14.7816 13.957 14.1356 13.957Z" fill="#1D1D1D"/>
</svg>
