<svg width="13" height="20" viewBox="0 0 13 20" fill="none" xmlns="http://www.w3.org/2000/svg">
<path d="M11.1324 4.69275H7.02711V1.70054L10.6325 1.15702C10.9524 1.10881 11.1724 0.812168 11.1238 0.494545C11.0753 0.176922 10.7764 -0.0418075 10.4566 0.00674728L6.35323 0.625317C6.06687 0.668481 5.85524 0.912884 5.85524 1.20045V4.69271H1.75775C0.788529 4.69271 0 5.47556 0 6.4379V7.60135C0 7.92262 0.262335 8.18308 0.585918 8.18308H1.2234L2.34262 19.3323C2.3725 19.6298 2.6246 19.8563 2.92568 19.8563H9.96061C10.2618 19.8563 10.5139 19.6296 10.5437 19.3321L11.6591 8.18312H12.3043C12.6279 8.18312 12.8902 7.92266 12.8902 7.60139V6.43793C12.8902 5.4756 12.1017 4.69275 11.1324 4.69275ZM9.84131 14.582H3.04341L2.80963 12.2532H10.0743L9.84131 14.582ZM3.4561 18.6929L3.16021 15.7455H9.72487L9.43 18.6929H3.4561ZM10.1907 11.0898H2.69284L2.40105 8.18308H10.4815L10.1907 11.0898ZM11.7184 7.01966C11.227 7.01966 1.88697 7.01966 1.17184 7.01966V6.43793C1.17184 6.11717 1.43468 5.85621 1.75775 5.85621H11.1324C11.4555 5.85621 11.7184 6.11713 11.7184 6.43793V7.01966Z" fill="#1D1D1D"/>
</svg>
