<svg width="51" height="51" viewBox="0 0 51 51" fill="none" xmlns="http://www.w3.org/2000/svg">
<g clip-path="url(#clip0_148_113)">
<path d="M27.5519 11.0718V9.6175H30.4815V6.70887H27.5519V5.25455C27.5519 2.84882 25.5806 0.891602 23.1576 0.891602C20.7345 0.891602 18.7632 2.84882 18.7632 5.25455V11.0718C18.7632 13.4776 20.7345 15.4348 23.1576 15.4348C25.5806 15.4348 27.5519 13.4776 27.5519 11.0718ZM24.6224 11.0718C24.6224 11.8737 23.9653 12.5261 23.1576 12.5261C22.3499 12.5261 21.6928 11.8737 21.6928 11.0718V9.6175H24.6224V11.0718ZM24.6224 6.70887H21.6928V5.25455C21.6928 4.45264 22.3499 3.80024 23.1576 3.80024C23.9653 3.80024 24.6224 4.45264 24.6224 5.25455V6.70887Z" fill="#1D1D1D"/>
<path d="M43.3075 30.305C43.1733 29.3721 42.916 27.5845 42.4235 24.1607H45.1289V15.4348H40.7345C38.8249 15.4348 37.1967 16.6508 36.592 18.3434H27.3004C26.6959 16.6505 25.0668 15.4348 23.157 15.4348C22.6434 15.4348 22.1506 15.5235 21.6922 15.685V15.4348H3.91933V29.978H0.989746V32.8856H5.92366C2.91741 35.3045 0.989746 39.0134 0.989746 43.1638C0.989746 47.1833 4.26444 50.5323 8.31371 50.5323C11.913 50.5323 14.8318 47.9028 15.4928 44.6181H36.4849C37.1461 47.9034 40.0652 50.5323 43.664 50.5323C47.7123 50.5323 50.9879 47.1842 50.9879 43.1638V40.2552C50.988 35.5511 47.7558 31.4557 43.3075 30.305ZM40.7345 18.3434H42.1993V21.2521H40.7345C39.9268 21.2521 39.2697 20.5997 39.2697 19.7978C39.2697 18.9959 39.9268 18.3434 40.7345 18.3434ZM6.84892 18.3434H18.7626V21.2521H6.84892V18.3434ZM6.84892 24.1607H18.7626V29.978C16.3618 29.978 10.8366 29.978 6.84892 29.978V24.1607ZM8.31371 47.6237C6.43077 47.6237 4.77985 46.347 4.1702 44.6162H12.4571C11.8476 46.347 10.1967 47.6237 8.31371 47.6237ZM24.6217 41.7095H4.02245C4.72946 36.7289 9.01154 32.8866 14.1729 32.8866H24.6217V41.7095ZM30.4809 41.7095H27.5513V29.978C26.1749 29.978 24.529 29.978 23.157 29.978C22.3493 29.978 21.6922 29.3256 21.6922 28.5237V26.8192C22.1506 26.9806 22.6434 27.0694 23.157 27.0694H29.0161C29.8238 27.0694 30.4809 27.7218 30.4809 28.5237V41.7095ZM23.157 24.1607C22.3493 24.1607 21.6922 23.5083 21.6922 22.7064V19.7978C21.6922 18.9959 22.3493 18.3434 23.157 18.3434C23.9646 18.3434 24.6217 18.9959 24.6217 19.7978V21.2511H36.0891C35.4846 22.945 33.8555 24.1607 31.9457 24.1607C30.8502 24.1607 24.1155 24.1607 23.157 24.1607ZM36.3401 25.6111V31.4323C36.3401 33.3314 35.098 34.9985 33.4105 35.6264V28.5237C33.4105 27.9781 33.3082 27.456 33.1231 26.9741C34.316 26.7819 35.4132 26.3035 36.3401 25.6111ZM36.4875 41.7095H33.4105V38.6518C36.6909 37.9769 39.2697 35.0144 39.2697 31.4323V23.9106C39.3248 23.93 39.38 23.949 39.4361 23.9662C41.6347 39.2469 39.8874 27.1076 40.703 32.8087L41.7947 32.9648C44.1506 33.3017 46.1237 34.7808 47.1941 36.795C46.1464 36.2204 44.9433 35.8922 43.6641 35.8922C40.1271 35.8922 37.168 38.3944 36.4875 41.7095ZM43.6641 47.6237C41.282 47.6237 39.2697 45.5814 39.2697 43.1638C39.2697 41.4872 40.2278 40.0294 41.6283 39.2991L42.214 43.3694L45.1142 42.9582L44.5283 38.8861C46.5389 39.2857 48.0584 41.0517 48.0584 43.1638C48.0584 45.5814 46.0461 47.6237 43.6641 47.6237Z" fill="#1D1D1D"/>
</g>
<defs>
<clipPath id="clip0_148_113">
<rect width="49.9983" height="49.6407" fill="white" transform="translate(0.989746 0.891602)"/>
</clipPath>
</defs>
</svg>
