<svg width="17" height="20" viewBox="0 0 17 20" fill="none" xmlns="http://www.w3.org/2000/svg">
<path d="M15.6439 6.93698V3.82649H12.9097V1.68053H10.1754V0H6.26927V1.68053H3.53499V3.82645H0.800714V6.93694H0L1.952 19.8563H14.4927L16.4447 6.93698H15.6439ZM14.4721 4.98994V6.93698H12.9097V4.98994H14.4721ZM8.22233 16.1133C6.52618 16.1133 5.4179 15.4857 5.32493 15.018L5.31876 14.9428C5.33837 14.4711 6.46485 13.7974 8.22233 13.7974C9.97981 13.7974 11.1063 14.4711 11.1259 14.9428L11.1197 15.018C11.0268 15.4857 9.91848 16.1133 8.22233 16.1133ZM7.63641 11.6565V12.6558C6.65465 12.7296 5.80492 12.9876 5.1897 13.3718L4.9512 10.469C4.95862 10.4758 4.96569 10.483 4.97315 10.4899C5.71125 11.1653 6.64516 11.572 7.63641 11.6565ZM11.4716 10.4899C11.479 10.483 11.4861 10.4759 11.4935 10.469L11.255 13.3718C10.6398 12.9877 9.79001 12.7296 8.80829 12.6558V11.6565C9.7995 11.572 10.7334 11.1653 11.4716 10.4899ZM11.7378 2.84399V7.48958C11.6444 8.55256 11.038 9.4699 10.1754 10.0064V2.84399H11.7378ZM9.00355 1.16345V10.4572C8.81341 10.4913 8.61837 10.5099 8.41959 10.5099H8.02507C7.82629 10.5099 7.63126 10.4913 7.44111 10.4572V1.16345H9.00355ZM6.26927 2.84399V10.0063C5.40669 9.4699 4.80022 8.55256 4.70683 7.48955V2.84399H6.26927ZM1.97255 4.98994H3.53499V6.93698H1.97255V4.98994ZM2.96119 18.6928L1.36073 8.10044H3.58085L4.45117 18.6928H2.96119ZM5.46258 16.6931C6.04628 16.9919 6.79262 17.1914 7.63641 17.2548V18.6928H5.62691L5.46258 16.6931ZM8.80825 18.6928V17.2548C9.65205 17.1914 10.3984 16.9919 10.9821 16.6931L10.8177 18.6928H8.80825ZM13.4835 18.6928H11.9935L12.8638 8.10044H15.0839L13.4835 18.6928Z" fill="#1D1D1D"/>
</svg>
