<svg width="50" height="51" viewBox="0 0 50 51" fill="none" xmlns="http://www.w3.org/2000/svg">
<g clip-path="url(#clip0_22_120)">
<path d="M21.6467 42.5939C21.4332 38.4269 19.1342 34.6482 15.5317 32.5431L9.775 26.1472C9.00073 25.27 7.7999 24.901 6.66667 25.1922V14.2606C6.66667 12.4196 5.17427 10.9272 3.33333 10.9272C1.4924 10.9272 0 12.4196 0 14.2606V30.0331C0.000833333 31.3082 0.325729 32.5621 0.944167 33.6772L8.33333 46.9764V50.0939C8.33333 50.5541 8.70646 50.9272 9.16667 50.9272H20.8333C21.2935 50.9272 21.6667 50.5541 21.6667 50.0939V42.5939H21.6467ZM20 49.2606H10V46.7606C10 46.6188 9.96385 46.4794 9.895 46.3556L2.40083 32.8664C1.92021 31.9993 1.6676 31.0244 1.66667 30.0331V14.2606C1.66667 13.3401 2.41281 12.5939 3.33333 12.5939C4.25385 12.5939 5 13.3401 5 14.2606V26.2214C3.95729 27.4332 3.98125 29.232 5.05583 30.4156L11.8833 37.9272L13.1167 36.8056L6.28917 29.2947C5.745 28.6962 5.76698 27.7757 6.33917 27.2039C6.93021 26.6123 7.88896 26.6119 8.48052 27.2031C8.49979 27.2223 8.51844 27.242 8.53667 27.2622L14.3808 33.7556C14.4552 33.8304 14.5393 33.8948 14.6308 33.9472C17.9474 35.8476 19.9951 39.3757 20 43.1981V49.2606Z" fill="#FDA72F"/>
<path d="M46.6667 10.9272C44.8257 10.9272 43.3333 12.4196 43.3333 14.2606V25.1922C43.0632 25.1239 42.7853 25.0909 42.5067 25.0939C41.6331 25.1134 40.8069 25.4945 40.225 26.1464L34.47 32.5406C30.8626 34.6421 28.5616 38.4242 28.3533 42.5939H28.3333V50.0939C28.3333 50.5541 28.7065 50.9272 29.1667 50.9272H40.8333C41.2936 50.9272 41.6667 50.5541 41.6667 50.0939V46.9747L48.9642 33.7481C49.642 32.5955 49.9996 31.2828 50 29.9456V14.2606C50 12.4196 48.5076 10.9272 46.6667 10.9272ZM48.3333 29.9456C48.3321 30.9932 48.0501 32.0214 47.5167 32.9231L40.1 46.3581C40.0332 46.4817 39.9989 46.6202 40 46.7606V49.2606H30V43.1981C30.0102 39.3608 32.0753 35.823 35.4117 33.9272C35.4893 33.8832 35.5594 33.8269 35.6192 33.7606L41.4633 27.2606C42.0246 26.6392 42.9832 26.5906 43.6046 27.1518C44.2259 27.7131 44.2746 28.6717 43.7133 29.2931L36.8833 36.8039L38.1167 37.9272L44.9442 30.4172C46.0198 29.2334 46.0437 27.4334 45 26.2214V14.2606C45 13.3401 45.7462 12.5939 46.6667 12.5939C47.5872 12.5939 48.3333 13.3401 48.3333 14.2606V29.9456Z" fill="#FDA72F"/>
<path d="M35 21.7606H33.3333C30.3439 21.7638 27.5443 23.2259 25.8333 25.6772V20.0939H26.6667C31.7268 20.088 35.8274 15.9873 35.8333 10.9272C35.8333 10.467 35.4602 10.0939 35 10.0939H33.3333C30.3439 10.0971 27.5443 11.5592 25.8333 14.0106V8.42725H26.6667C30.3469 8.42308 33.3292 5.44079 33.3333 1.76058C33.3333 1.30037 32.9602 0.927246 32.5 0.927246H30.8333C28.4064 0.928704 26.1722 2.24891 25 4.37391C23.8278 2.24891 21.5935 0.928704 19.1667 0.927246H17.5C17.0398 0.927246 16.6667 1.30037 16.6667 1.76058C16.6708 5.44079 19.6531 8.42308 23.3333 8.42725H24.1667V14.0106C22.4557 11.5592 19.656 10.0971 16.6667 10.0939H15C14.5398 10.0939 14.1667 10.467 14.1667 10.9272C14.1726 15.9873 18.2732 20.088 23.3333 20.0939H24.1667V25.6772C22.4557 23.2259 19.656 21.7638 16.6667 21.7606H15C14.5398 21.7606 14.1667 22.1337 14.1667 22.5939C14.1726 27.654 18.2732 31.7546 23.3333 31.7606H24.1667V38.4272H25.8333V31.7606H26.6667C31.7268 31.7546 35.8274 27.654 35.8333 22.5939C35.8333 22.1337 35.4602 21.7606 35 21.7606ZM33.3333 11.7606H34.1208C33.6917 15.5544 30.4847 18.4227 26.6667 18.4272H25.8792C26.3083 14.6334 29.5153 11.7652 33.3333 11.7606ZM30.8333 2.59391H31.5975C31.1876 4.99808 29.1055 6.75756 26.6667 6.76058H25.9025C26.3124 4.35641 28.3945 2.59693 30.8333 2.59391ZM23.3333 6.76058C20.8945 6.75756 18.8124 4.99808 18.4025 2.59391H19.1667C21.6055 2.59693 23.6876 4.35641 24.0975 6.76058H23.3333ZM23.3333 18.4272C19.5153 18.4227 16.3083 15.5544 15.8792 11.7606H16.6667C20.4847 11.7652 23.6917 14.6334 24.1208 18.4272H23.3333ZM23.3333 30.0939C19.5153 30.0893 16.3083 27.2211 15.8792 23.4272H16.6667C20.4847 23.4318 23.6917 26.3001 24.1208 30.0939H23.3333ZM26.6667 30.0939H25.8792C26.3083 26.3001 29.5153 23.4318 33.3333 23.4272H34.1208C33.6917 27.2211 30.4847 30.0893 26.6667 30.0939Z" fill="#FDA72F"/>
</g>
<defs>
<clipPath id="clip0_22_120">
<rect width="50" height="50" fill="white" transform="translate(0 0.927246)"/>
</clipPath>
</defs>
</svg>
