<svg width="50" height="51" viewBox="0 0 50 51" fill="none" xmlns="http://www.w3.org/2000/svg">
<g clip-path="url(#clip0_22_258)">
<path d="M36.7214 32.6324C36.0656 32.7471 30.7705 33.6898 28.3279 35.8127C28.1717 35.1288 27.9351 34.4657 27.623 33.8373C25.7378 30.0504 17.3443 27.2799 16.9673 27.198C16.5503 27.0895 16.1206 27.3223 15.9837 27.7307C15.8689 28.0996 13.1722 36.7471 15.0492 40.5422C16.8197 44.0996 20.7869 46.0258 24.3443 44.5504C24.9887 46.1444 25.4986 47.7895 25.8689 49.4685C25.8825 49.9212 26.2605 50.2771 26.7132 50.2635C27.1659 50.25 27.5218 49.872 27.5083 49.4193C27.7868 47.9453 28.3431 46.5378 29.1476 45.2717C31.8689 46.8455 35.2705 45.7717 37.0738 43.2062C38.8771 40.6406 37.8361 34.034 37.6968 33.2963C37.6592 33.077 37.534 32.8824 37.3501 32.7572C37.1661 32.632 36.9392 32.5869 36.7214 32.6324ZM16.4837 39.8127C15.3033 37.4275 16.4837 31.8209 17.3033 29.0258C19.9181 29.9848 25.0001 32.2062 26.1558 34.534C27.5164 37.2553 26.9755 40.4111 25.0656 42.1324C24.1987 40.2342 23.118 38.4412 21.8443 36.7881C21.6569 36.5626 21.3634 36.4543 21.0744 36.5038C20.7854 36.5534 20.5449 36.7534 20.4433 37.0284C20.3417 37.3035 20.3946 37.6118 20.582 37.8373C21.8015 39.4407 22.8329 41.1789 23.6558 43.0176C20.9509 44.157 17.8771 42.6078 16.4837 39.8127ZM26.6968 46.3701C26.4017 45.4357 26.0738 44.5668 25.746 43.7554C26.1465 43.4464 26.512 43.0946 26.8361 42.7062C27.069 43.282 27.402 43.812 27.8197 44.2717C27.395 44.9317 27.0197 45.6221 26.6968 46.3373V46.3701ZM35.7132 42.2717C34.5088 44.158 32.0928 44.8593 30.0656 43.9111C30.8821 42.8224 31.7987 41.8126 32.8033 40.8947C33.1474 40.6004 33.1877 40.083 32.8935 39.739C32.5992 39.3949 32.0818 39.3545 31.7378 39.6488C30.66 40.6185 29.6774 41.6889 28.8033 42.8455C28.3394 42.1921 28.0772 41.4169 28.0492 40.616C28.3323 39.8583 28.5008 39.0627 28.5492 38.2553C28.6611 38.0017 28.7984 37.76 28.9591 37.534C30.0574 35.9685 34.0164 34.8701 36.205 34.4111C36.4755 36.6078 36.8033 40.698 35.6968 42.2635L35.7132 42.2717Z" fill="#AFA925"/>
<path d="M42.2132 0.92749C40.8551 0.92749 39.7542 2.02843 39.7542 3.38651V46.8291C39.7531 47.7272 40.1205 48.5865 40.7705 49.2062C41.7376 50.1304 43.1692 50.3743 44.3878 49.8227C45.6064 49.2711 46.3678 48.0345 46.3115 46.698V30.4357C46.3097 29.272 47.1238 28.2663 48.2624 28.0259C49.0445 27.8746 49.6047 27.183 49.5902 26.3865V8.30454C49.5902 4.23031 46.2874 0.92749 42.2132 0.92749ZM47.9509 26.4275C47.3573 26.5466 46.7974 26.7957 46.3115 27.157V24.698C46.3115 24.2453 45.9446 23.8783 45.4919 23.8783C45.0392 23.8783 44.6722 24.2453 44.6722 24.698V46.698C44.73 47.3783 44.3601 48.0231 43.7437 48.3167C43.1273 48.6103 42.3935 48.4912 41.9017 48.0177C41.5767 47.7078 41.393 47.2782 41.3935 46.8291V3.38651C41.3935 2.93381 41.7605 2.56683 42.2132 2.56683C45.382 2.56683 47.9509 5.13569 47.9509 8.30454V26.4275Z" fill="#AFA925"/>
<path d="M18.4427 18.1816V3.38651C18.4427 2.02843 17.3418 0.92749 15.9837 0.92749C14.6256 0.92749 13.5247 2.02843 13.5247 3.38651V14.8619C13.52 15.1919 13.3179 15.487 13.0118 15.6105C12.7057 15.734 12.3554 15.6619 12.123 15.4275C11.9681 15.2806 11.8818 15.0754 11.8853 14.8619V3.38651C11.8853 2.02843 10.7844 0.92749 9.4263 0.92749C8.06823 0.92749 6.96729 2.02843 6.96729 3.38651V14.8619C6.96263 15.1919 6.76049 15.487 6.45441 15.6105C6.14834 15.734 5.79804 15.6619 5.56565 15.4275C5.4107 15.2806 5.32447 15.0754 5.32794 14.8619V3.38651C5.32794 2.02843 4.22701 0.92749 2.86893 0.92749C1.51085 0.92749 0.409912 2.02843 0.409912 3.38651V18.1816C0.408883 21.8968 2.68676 25.2322 6.14762 26.5832V46.8291C6.14762 48.6399 7.61554 50.1078 9.4263 50.1078C11.2371 50.1078 12.705 48.6399 12.705 46.8291V26.5668C16.1708 25.2314 18.4532 21.8958 18.4427 18.1816ZM11.0656 46.8291C11.0656 47.7345 10.3317 48.4685 9.4263 48.4685C8.52092 48.4685 7.78696 47.7345 7.78696 46.8291V27.0422C8.03286 27.0914 8.27876 27.1242 8.52466 27.157C8.97736 27.2023 9.38104 26.872 9.4263 26.4193C9.47157 25.9666 9.14129 25.5629 8.6886 25.5177C4.92055 25.139 2.05131 21.9686 2.04926 18.1816V3.38651C2.04926 2.93381 2.41624 2.56683 2.86893 2.56683C3.32162 2.56683 3.6886 2.93381 3.6886 3.38651V14.8619C3.68916 15.5099 3.94544 16.1314 4.40172 16.5914C5.10312 17.2986 6.16184 17.5128 7.08299 17.1339C8.00415 16.7551 8.60577 15.8579 8.60663 14.8619V3.38651C8.60663 2.93381 8.97361 2.56683 9.4263 2.56683C9.879 2.56683 10.246 2.93381 10.246 3.38651V14.8619C10.2465 15.5099 10.5028 16.1314 10.9591 16.5914C11.6605 17.2986 12.7192 17.5128 13.6404 17.1339C14.5615 16.7551 15.1631 15.8579 15.164 14.8619V3.38651C15.164 2.93381 15.531 2.56683 15.9837 2.56683C16.4364 2.56683 16.8034 2.93381 16.8034 3.38651V18.1816C16.8071 20.1385 16.0279 22.0157 14.6394 23.3947C13.1148 24.9275 11.6558 25.1078 11.3607 25.4029C11.0656 25.698 11.0656 24.8209 11.0656 46.8291Z" fill="#AFA925"/>
<path d="M25.2133 21.0341C24.3936 24.6161 26.0821 28.28 29.3608 29.3292C29.2788 29.9276 29.2051 30.5505 29.1641 31.1981C29.1311 31.6482 29.4682 32.0402 29.9182 32.0751C30.1357 32.0909 30.3505 32.0193 30.5151 31.8762C30.6797 31.7332 30.7805 31.5304 30.7952 31.3128C30.7952 30.7227 30.9018 30.1489 30.9838 29.6079C34.328 29.7145 37.2133 27.0669 37.9919 23.6981C38.8608 19.985 34.869 13.5096 34.4182 12.7882C34.3018 12.5999 34.1142 12.4667 33.8981 12.4188C33.6819 12.3709 33.4556 12.4125 33.2706 12.5341C32.5411 13.0178 26.0739 17.321 25.2133 21.0341ZM33.4674 14.3866C34.7542 16.6161 36.9264 21.0259 36.3936 23.3292C35.7706 26.0259 33.5821 27.9276 31.2624 27.9768C31.534 26.6845 31.9067 25.4155 32.3772 24.1817C32.5088 23.9067 32.477 23.5814 32.2945 23.3372C32.1121 23.093 31.8092 22.9702 31.5082 23.0184C31.2072 23.0667 30.9578 23.2779 30.8608 23.5669C30.3547 24.8974 29.9626 26.2684 29.6887 27.6653C27.2297 26.7309 26.2543 23.944 26.8526 21.3866C27.3526 19.0915 31.3034 15.903 33.4674 14.3866Z" fill="#AFA925"/>
<path d="M24.8607 13.6816C24.9099 13.9848 24.9673 14.2963 25.0083 14.616C25.0694 15.0687 25.4859 15.3861 25.9386 15.325C26.3913 15.2639 26.7087 14.8474 26.6476 14.3947C26.6476 14.0914 26.5575 13.7963 26.5083 13.5012C29.164 12.7225 30.4017 9.92746 29.787 7.27992C29.1722 4.63238 24.328 1.40287 23.787 1.05861C23.6036 0.938912 23.38 0.897551 23.166 0.943745C22.9519 0.989939 22.7653 1.11985 22.6476 1.30451C22.3116 1.8291 19.3689 6.54221 20.0165 9.30451C20.5183 11.6555 22.471 13.4199 24.8607 13.6816ZM23.5984 2.90287C25.4181 4.18156 27.828 6.26352 28.164 7.65697C28.689 9.37386 27.8231 11.2085 26.164 11.8947C25.9438 10.9966 25.6701 10.1125 25.3444 9.24713C25.1837 8.82822 24.7161 8.61634 24.2952 8.77172C24.0904 8.84725 23.9242 9.00134 23.8334 9.19982C23.7427 9.3983 23.7348 9.62479 23.8116 9.8291C24.0684 10.5347 24.2846 11.2545 24.4591 11.9848C22.9962 11.594 21.8794 10.4105 21.5739 8.92746C21.287 7.54221 22.5411 4.76352 23.5984 2.90287Z" fill="#AFA925"/>
</g>
<defs>
<clipPath id="clip0_22_258">
<rect width="50" height="50" fill="white" transform="translate(0 0.92749)"/>
</clipPath>
</defs>
</svg>
