<svg width="30" height="30" viewBox="0 0 30 30" fill="none" xmlns="http://www.w3.org/2000/svg">
<path d="M15.0001 11.4263C13.5462 11.4263 12.3634 12.609 12.3634 14.0628H14.1212C14.1212 13.5782 14.5155 13.1839 15.0001 13.1839C15.4848 13.1839 15.879 13.5782 15.879 14.0628C15.879 14.3757 15.7104 14.6676 15.4389 14.8246C14.6261 15.2947 14.1212 16.1697 14.1212 17.1079V18.457H15.879V17.1079C15.879 16.795 16.0477 16.503 16.3191 16.346C17.1319 15.8759 17.6369 15.001 17.6369 14.0628C17.6369 12.609 16.454 11.4263 15.0001 11.4263Z" fill="white"/>
<path d="M14.1212 20.2153H15.879V21.9724H14.1212V20.2153Z" fill="white"/>
<path d="M28.2213 12.4488C27.837 5.51982 22.0541 0 15 0C7.9459 0 2.16305 5.51982 1.77873 12.4488C0.744902 12.8057 0 13.7879 0 14.9414V18.457C0 19.9109 1.18283 21.0938 2.63672 21.0938H6.38977C7.99266 24.2216 11.2505 26.3672 15 26.3672C18.7495 26.3672 22.0073 24.2216 23.6102 21.0938H26.4844V22.0898C26.4844 25.4822 23.7244 28.2422 20.332 28.2422H14.1211V30H20.332C24.6937 30 28.2422 26.4515 28.2422 22.0898V20.9426C29.2652 20.5798 30 19.6028 30 18.457V14.9414C30 13.7879 29.2551 12.8057 28.2213 12.4488ZM15 1.75781C21.0353 1.75781 25.9982 6.41355 26.4507 12.3047H23.6102C22.0073 9.17684 18.7495 7.03125 15 7.03125C11.2505 7.03125 7.99266 9.17684 6.38977 12.3047H3.54926C4.00184 6.41355 8.96467 1.75781 15 1.75781ZM5.33203 19.3359H2.63672C2.15209 19.3359 1.75781 18.9417 1.75781 18.457V14.9414C1.75781 14.4568 2.15209 14.0625 2.63672 14.0625H5.33203V19.3359ZM15 24.6094C10.6383 24.6094 7.08984 21.0609 7.08984 16.6992C7.08984 12.3376 10.6383 8.78906 15 8.78906C19.3617 8.78906 22.9102 12.3376 22.9102 16.6992C22.9102 21.0609 19.3617 24.6094 15 24.6094ZM28.2422 18.457C28.2422 18.9417 27.8479 19.3359 27.3633 19.3359H24.668V14.0625H27.3633C27.8479 14.0625 28.2422 14.4568 28.2422 14.9414V18.457Z" fill="white"/>
</svg>
