<svg width="50" height="51" viewBox="0 0 50 51" fill="none" xmlns="http://www.w3.org/2000/svg">
<g clip-path="url(#clip0_34_132)">
<path d="M49.0235 40.0837C40.8677 40.0837 32.8629 43.4292 27.0615 49.2623C26.6808 49.6449 26.6827 50.2633 27.0649 50.6432C27.2557 50.8328 27.5044 50.9274 27.7539 50.9274C28.0045 50.9274 28.2551 50.8316 28.4462 50.6398C33.8837 45.1725 41.3838 42.0369 49.0235 42.0369C49.5629 42.0369 50.0001 41.5997 50.0001 41.0603C50.0001 40.5213 49.5629 40.0837 49.0235 40.0837Z" fill="#1AB2C6"/>
<path d="M28.659 39.1791C28.3569 38.732 27.75 38.6145 27.3033 38.9166C23.1273 41.7372 19.6006 45.2666 16.8205 49.4063C16.5199 49.8542 16.6389 50.4611 17.0867 50.7617C17.2542 50.8738 17.443 50.9276 17.6303 50.9276C17.9447 50.9276 18.2537 50.7758 18.4421 50.4954C21.0811 46.5651 24.43 43.2139 28.3966 40.5348C28.8433 40.2331 28.9607 39.6262 28.659 39.1791Z" fill="#1AB2C6"/>
<path d="M49.0234 32.2224C44.6575 32.2224 40.3362 32.9682 36.1797 34.4391C35.6712 34.6188 35.4049 35.1769 35.585 35.6854C35.7265 36.0863 36.1034 36.3366 36.5055 36.3366C36.6134 36.3366 36.7233 36.3183 36.8312 36.2801C40.7779 34.8835 44.8799 34.1755 49.0234 34.1755C49.5628 34.1755 50 33.7384 50 33.199C50 32.6596 49.5628 32.2224 49.0234 32.2224Z" fill="#1AB2C6"/>
<path d="M13.9919 44.2273C20.4166 35.8506 29.7169 30.0344 39.9792 27.8547C39.9811 27.8543 39.983 27.8539 39.9845 27.8535C42.9337 27.2275 45.9614 26.9014 49.0234 26.9014C49.5625 26.9014 50 26.4638 50 25.9248C50 25.3854 49.5625 24.9482 49.0234 24.9482C46.2467 24.9482 43.4807 25.2023 40.7616 25.6994V23.5914C44.2913 20.6033 46.2288 16.6879 46.2288 12.5184C46.2288 8.20744 44.1578 4.16806 40.3969 1.14415C40.0394 0.856899 39.5302 0.856899 39.1727 1.14415C35.4122 4.16806 33.3408 8.20744 33.3408 12.5184C33.3408 16.6879 35.2787 20.6033 38.8081 23.5914V26.0988C36.9526 26.521 35.1238 27.0593 33.3332 27.7074V21.9896C33.3332 21.721 33.2249 21.478 33.0494 21.3014V21.301L27.5806 15.7998C27.3972 15.6156 27.1481 15.5118 26.8879 15.5118H15.7227C15.4629 15.5118 15.2134 15.6156 15.0303 15.7998L9.56154 21.301V21.3014C9.38606 21.478 9.27734 21.721 9.27734 21.9899V25.7192C8.5968 25.5944 7.91321 25.4846 7.22656 25.3907V21.9095C9.89571 19.6134 11.3602 16.6188 11.3602 13.4286C11.3602 10.0957 9.76257 6.97606 6.86188 4.64337C6.50444 4.35612 5.99556 4.35612 5.63812 4.64337C2.73743 6.97567 1.13983 10.0957 1.13983 13.4286C1.13983 16.6185 2.60429 19.613 5.27344 21.9091V25.1661C3.84941 25.0329 2.41585 24.9643 0.976562 24.9643C0.437164 24.9643 0 25.4014 0 25.9408C0 26.4802 0.437164 26.9174 0.976562 26.9174C8.78525 26.9174 16.423 28.9834 23.1564 32.903C21.5431 33.9994 20.0024 35.1968 18.5436 36.4858C13.0882 33.7064 7.02667 32.2397 0.976562 32.2397C0.437546 32.2397 0 32.6768 0 33.2162C0 33.7556 0.437546 34.1928 0.976562 34.1928C6.48155 34.1928 11.9976 35.473 17.009 37.9041C15.5243 39.3403 14.1365 40.8769 12.8559 42.5012C9.05724 40.9082 5.06477 40.101 0.976562 40.101C0.437546 40.101 0 40.5381 0 41.0775C0 41.6169 0.437546 42.0541 0.976562 42.0541C4.63867 42.0541 8.21915 42.7484 11.6394 44.1156C10.9646 45.0532 10.3233 46.0164 9.72023 47.0052L8.23212 49.4432C7.95097 49.9032 8.09669 50.5044 8.55675 50.7852C8.71582 50.8825 8.8913 50.9286 9.06487 50.9286C9.39369 50.9286 9.71527 50.7619 9.89914 50.4606L11.3873 48.0226C12.1632 46.7511 13.0016 45.5278 13.8954 44.3532C13.9305 44.3143 13.9633 44.2727 13.9919 44.2273ZM35.2943 12.5184C35.2943 9.04744 36.8824 5.75955 39.785 3.1831C42.6876 5.75955 44.2757 9.04744 44.2757 12.5184C44.2757 15.5771 43.0412 18.4942 40.7616 20.9069V13.4286C40.7616 12.8892 40.3244 12.4521 39.785 12.4521C39.2456 12.4521 38.8084 12.8892 38.8084 13.4286V20.9069C36.5284 18.4942 35.2943 15.5771 35.2943 12.5184ZM3.09296 13.4286C3.09296 10.9376 4.20799 8.57174 6.25 6.69186C8.29201 8.57136 9.40704 10.9376 9.40704 13.4286C9.40704 15.4874 8.64449 17.4611 7.22656 19.1457V12.6474C7.22656 12.108 6.7894 11.6708 6.25 11.6708C5.71098 11.6708 5.27344 12.108 5.27344 12.6474V19.1457C3.85551 17.4611 3.09296 15.4874 3.09296 13.4286ZM30.0091 21.013H21.5977L18.0706 17.4649H26.482L30.0091 21.013ZM15.7227 17.8735L18.8438 21.013H12.6019L15.7227 17.8735ZM11.2305 22.9661H20.2148V29.1764C19.762 28.9682 19.3066 28.7668 18.8477 28.5733V25.2935C18.8477 24.7545 18.4105 24.3169 17.8711 24.3169H13.5742C13.0352 24.3169 12.5977 24.7545 12.5977 25.2935V26.4547C12.1437 26.3364 11.6882 26.2243 11.2305 26.1197V22.9661ZM16.8945 27.8028C16.1201 27.5174 15.3389 27.2527 14.5508 27.0097V26.27H16.8945V27.8028ZM22.168 30.132V22.9661H31.3805V28.4654C29.7077 29.1585 28.0731 29.9497 26.4885 30.8393C25.9819 31.1235 25.4814 31.4187 24.9866 31.7216C24.0635 31.1578 23.1236 30.6276 22.168 30.132Z" fill="#1AB2C6"/>
<path d="M39.785 10.6934C40.0418 10.6934 40.2939 10.5888 40.4755 10.4069C40.6571 10.2253 40.7616 9.97353 40.7616 9.7168C40.7616 9.45969 40.6575 9.20792 40.4755 9.02634C40.2939 8.84438 40.0418 8.74023 39.785 8.74023C39.5283 8.74023 39.2762 8.84438 39.095 9.02634C38.913 9.20792 38.8085 9.45969 38.8085 9.7168C38.8085 9.97353 38.913 10.2253 39.095 10.4069C39.2762 10.5885 39.5283 10.6934 39.785 10.6934Z" fill="#1AB2C6"/>
<path d="M31.3083 36.5985C31.1271 36.7801 31.0222 37.0318 31.0222 37.2886C31.0222 37.5464 31.1267 37.7975 31.3083 37.979C31.4903 38.161 31.7421 38.2651 31.9988 38.2651C32.2559 38.2651 32.5077 38.161 32.6892 37.979C32.8708 37.7975 32.9753 37.5464 32.9753 37.2886C32.9753 37.0318 32.8708 36.7801 32.6892 36.5985C32.5077 36.4165 32.2559 36.312 31.9988 36.312C31.7421 36.312 31.4903 36.4165 31.3083 36.5985Z" fill="#1AB2C6"/>
</g>
<defs>
<clipPath id="clip0_34_132">
<rect width="50" height="50" fill="white" transform="translate(0 0.927734)"/>
</clipPath>
</defs>
</svg>
