<svg width="20" height="21" viewBox="0 0 20 21" fill="none" xmlns="http://www.w3.org/2000/svg">
<path d="M19.4986 11.9394C19.4986 11.0728 18.923 10.3372 18.1315 10.0896V7.05137C18.1315 3.50536 15.2258 0.620499 11.6543 0.620499H7.84434C4.27278 0.620499 1.36714 3.50536 1.36714 7.05137V10.0896C0.575605 10.3372 0 11.0728 0 11.9394C0 12.806 0.575605 13.5415 1.36714 13.7892V17.5681C1.36714 19.172 2.68135 20.4768 4.29673 20.4768H15.2019C16.8173 20.4768 18.1315 19.172 18.1315 17.5681V13.7892C18.923 13.5415 19.4986 12.806 19.4986 11.9394ZM2.53898 7.05137C2.53898 4.14689 4.91893 1.78395 7.84434 1.78395H11.6543C14.5797 1.78395 16.9597 4.14689 16.9597 7.05137V7.28561H2.53898V7.05137ZM16.9597 8.44903V10.072C16.6417 10.1573 16.423 10.3015 16.2469 10.4175C16.0277 10.562 15.9069 10.6416 15.5963 10.6416C15.2858 10.6416 15.1651 10.562 14.9458 10.4175C14.678 10.241 14.3112 9.99922 13.6471 9.99922C12.9831 9.99922 12.6163 10.2409 12.3485 10.4175C12.1293 10.562 12.0085 10.6416 11.698 10.6416C11.3876 10.6416 11.2668 10.562 11.0476 10.4175C10.7798 10.2409 10.413 9.99922 9.749 9.99922C9.08496 9.99922 8.71822 10.241 8.45045 10.4175C8.23124 10.562 8.1105 10.6416 7.80008 10.6416C7.48963 10.6416 7.36885 10.562 7.14964 10.4175C6.88187 10.2409 6.51509 9.99922 5.85105 9.99922C5.18701 9.99922 4.82022 10.2409 4.55246 10.4175C4.33325 10.562 4.21247 10.6416 3.90201 10.6416C3.59156 10.6416 3.47082 10.562 3.25161 10.4175C3.0756 10.3014 2.85682 10.1573 2.53894 10.072V8.44899H16.9597V8.44903ZM11.8564 13.8785H16.9597V15.4298H10.5216L11.8564 13.8785ZM8.43639 16.0619C8.28557 16.2372 8.0746 16.3337 7.84239 16.3337C7.61021 16.3337 7.39924 16.2372 7.24842 16.0619L5.36966 13.8785H10.3152L8.43639 16.0619ZM5.16326 15.4298H2.53898V13.8785H3.82842L5.16326 15.4298ZM16.9597 17.5681C16.9597 18.5304 16.1711 19.3133 15.2019 19.3133H4.29673C3.3275 19.3133 2.53898 18.5304 2.53898 17.5681V16.5932H6.1644L6.35748 16.8176C6.72907 17.2495 7.27034 17.4972 7.84243 17.4972C8.41452 17.4972 8.95579 17.2495 9.32737 16.8176L9.52045 16.5932H16.9597V17.5681H16.9597ZM17.5456 12.715H1.95306C1.52229 12.715 1.17183 12.3671 1.17183 11.9394C1.17183 11.5117 1.52229 11.1638 1.95306 11.1638H2.01192C2.27977 11.1735 2.39871 11.2518 2.60347 11.3868C2.87123 11.5632 3.23801 11.805 3.90205 11.805C4.56609 11.805 4.93288 11.5633 5.20064 11.3868C5.41985 11.2422 5.54063 11.1627 5.85109 11.1627C6.16155 11.1627 6.28232 11.2422 6.50153 11.3868C6.7693 11.5633 7.13608 11.805 7.80012 11.805C8.46416 11.805 8.83091 11.5632 9.09867 11.3868C9.31788 11.2422 9.43862 11.1627 9.74904 11.1627C10.0595 11.1627 10.1803 11.2422 10.3995 11.3868C10.6672 11.5633 11.034 11.805 11.6981 11.805C12.3621 11.805 12.7289 11.5633 12.9967 11.3868C13.2159 11.2422 13.3367 11.1627 13.6472 11.1627C13.9577 11.1627 14.0785 11.2423 14.2978 11.3868C14.5656 11.5633 14.9323 11.8051 15.5964 11.8051C16.2605 11.8051 16.6272 11.5633 16.895 11.3868C17.0999 11.2518 17.2188 11.1735 17.4867 11.1638H17.5456C17.9764 11.1638 18.3268 11.5117 18.3268 11.9394C18.3268 12.3671 17.9763 12.715 17.5456 12.715Z" fill="#1D1D1D"/>
<path d="M5.40479 4.9865H6.52457V6.14995H5.40479V4.9865Z" fill="#1D1D1D"/>
<path d="M9.18945 4.9865H10.3092V6.14995H9.18945V4.9865Z" fill="#1D1D1D"/>
<path d="M12.9741 4.9865H14.0939V6.14995H12.9741V4.9865Z" fill="#1D1D1D"/>
<path d="M7.29688 2.91959H8.41663V4.08307H7.29688V2.91959Z" fill="#1D1D1D"/>
<path d="M11.0818 2.91959H12.2016V4.08307H11.0818V2.91959Z" fill="#1D1D1D"/>
</svg>
