<svg width="50" height="40" viewBox="0 0 50 40" fill="none" xmlns="http://www.w3.org/2000/svg">
<path d="M43.8961 0.974609H6.11421C2.74157 0.974609 0 3.71618 0 7.08882V32.9113C0 36.2839 2.74157 39.0255 6.11421 39.0255H43.8858C47.2584 39.0255 50 36.2839 50 32.9113V7.09917C50.0103 3.72652 47.2688 0.974609 43.8961 0.974609ZM47.2171 32.9113C47.2171 34.7425 45.7273 36.2322 43.8961 36.2322H6.11421C4.28305 36.2322 2.7933 34.7425 2.7933 32.9113V7.09917C2.7933 5.26801 4.28305 3.77825 6.11421 3.77825H43.8858C45.7169 3.77825 47.2067 5.26801 47.2067 7.09917V32.9113H47.2171Z" fill="#1AB2C6"/>
<path d="M31.5329 19.6794L43.7613 8.71308C44.3303 8.1958 44.3821 7.31643 43.8648 6.73708C43.3475 6.16807 42.4681 6.11634 41.8888 6.63362L25.0256 21.7691L21.7357 18.831C21.7253 18.8207 21.715 18.8103 21.715 18.8C21.6426 18.7276 21.5701 18.6655 21.4874 18.6034L8.10025 6.62328C7.5209 6.106 6.64153 6.15773 6.12425 6.73708C5.60698 7.31643 5.6587 8.1958 6.23805 8.71308L18.6113 19.7725L6.28978 31.3077C5.73112 31.8354 5.70009 32.7147 6.22771 33.2837C6.50704 33.5734 6.87948 33.7286 7.25192 33.7286C7.59332 33.7286 7.93472 33.6045 8.20371 33.3562L20.7115 21.6553L24.1048 24.6866C24.3738 24.9245 24.7048 25.0383 25.0359 25.0383C25.367 25.0383 25.7084 24.9142 25.967 24.6762L29.4534 21.5519L41.8888 33.3665C42.1578 33.6251 42.5095 33.7493 42.8509 33.7493C43.2234 33.7493 43.5855 33.6045 43.8648 33.3148C44.3924 32.7561 44.3717 31.8664 43.8131 31.3388L31.5329 19.6794Z" fill="#1AB2C6"/>
</svg>
