<svg width="42" height="50" viewBox="0 0 42 50" fill="none" xmlns="http://www.w3.org/2000/svg">
<path d="M20.9911 0C9.94293 0 0.949219 8.99371 0.949219 20.0419C0.949219 21.2998 1.06452 22.5681 1.30561 23.805C1.31609 23.8784 1.35802 24.0985 1.44188 24.4759C1.74586 25.8281 2.1966 27.1593 2.7836 28.4277C4.94293 33.5115 9.69136 41.3208 20.1106 49.6855C20.3727 49.8952 20.6872 50 21.0016 50C21.3161 50 21.6306 49.8952 21.8926 49.6855C32.3014 41.3208 37.0603 33.5115 39.2197 28.4277C39.8067 27.1593 40.2574 25.8386 40.5614 24.4759C40.6452 24.0985 40.6872 23.8784 40.6976 23.805C40.9283 22.5681 41.054 21.2998 41.054 20.0419C41.0331 8.99371 32.0394 0 20.9911 0ZM37.8884 23.3124C37.8884 23.3333 37.8779 23.3543 37.8779 23.3753C37.8675 23.4277 37.836 23.5849 37.7836 23.826C37.7836 23.8365 37.7836 23.8365 37.7836 23.847C37.5215 25.021 37.1337 26.1635 36.6201 27.2642C36.6096 27.2746 36.6096 27.2956 36.5991 27.3061C34.6389 31.9497 30.3413 39.0356 20.9911 46.761C11.641 39.0356 7.34335 31.9497 5.38318 27.3061C5.3727 27.2956 5.3727 27.2746 5.36222 27.2642C4.85907 26.174 4.47123 25.021 4.19869 23.847C4.19869 23.8365 4.19869 23.8365 4.19869 23.826C4.1358 23.5849 4.11484 23.4277 4.10436 23.3753C4.10436 23.3543 4.09387 23.3333 4.09387 23.3019C3.88423 22.2222 3.77941 21.1321 3.77941 20.0314C3.77941 10.5451 11.5048 2.81971 20.9911 2.81971C30.4775 2.81971 38.2029 10.5451 38.2029 20.0314C38.2029 21.1426 38.0981 22.2432 37.8884 23.3124Z" fill="#FDA72F"/>
<path d="M20.991 7.53662C13.9784 7.53662 8.26562 13.2494 8.26562 20.262C8.26562 27.2746 13.9784 32.9874 20.991 32.9874C28.0036 32.9874 33.7164 27.2746 33.7164 20.262C33.7164 13.2494 28.0036 7.53662 20.991 7.53662ZM20.991 30.1572C15.5298 30.1572 11.0958 25.7127 11.0958 20.262C11.0958 14.8113 15.5403 10.3668 20.991 10.3668C26.4417 10.3668 30.8862 14.8113 30.8862 20.262C30.8862 25.7127 26.4522 30.1572 20.991 30.1572Z" fill="#FDA72F"/>
</svg>
