<svg width="20" height="20" viewBox="0 0 20 20" fill="none" xmlns="http://www.w3.org/2000/svg">
<path d="M19.9994 14.8744L19.9692 14.3913C19.853 12.5289 19.4056 10.73 18.6396 9.04478C17.872 7.35603 16.8048 5.82666 15.4678 4.4992C14.1308 3.1717 12.5904 2.11221 10.8895 1.35004C9.19205 0.589484 7.38023 0.145316 5.50439 0.0299396L5.01777 0L0 19.8563L19.9994 14.8744ZM5.91641 1.23063C9.20447 1.54507 12.2857 2.98721 14.6382 5.32289C16.9907 7.6586 18.4432 10.7177 18.7599 13.9823L16.3612 14.5798C16.4004 14.446 16.4446 14.3088 16.4895 14.1691C16.7038 13.504 16.9253 12.8163 16.7356 12.114C16.5387 11.3846 15.9631 10.8694 15.4554 10.4149C15.1283 10.1222 14.8194 9.84574 14.6518 9.55852C14.4791 9.2627 14.3895 8.85304 14.2945 8.41931C14.1507 7.76215 13.9876 7.0173 13.4595 6.49297C12.9314 5.96864 12.1812 5.80677 11.5193 5.66397C11.0825 5.56973 10.6699 5.48069 10.3719 5.30924C10.0826 5.14282 9.80414 4.83614 9.50931 4.51145C9.05155 4.00733 8.53269 3.43596 7.79807 3.24038C7.60929 3.19012 7.42156 3.16894 7.235 3.16894C6.7226 3.16894 6.21925 3.32876 5.72814 3.4847C5.58744 3.52938 5.44924 3.57328 5.31452 3.61214L5.91641 1.23063ZM3.58809 10.4442C4.16819 10.7314 4.49657 11.3926 4.33896 12.0404C4.24975 12.4072 4.02198 12.7175 3.69765 12.9142C3.45774 13.0598 3.18626 13.13 2.91166 13.1209L3.58809 10.4442ZM2.62257 14.265C2.7353 14.2797 2.84819 14.2873 2.96069 14.2873C3.43243 14.2873 3.89652 14.1587 4.30932 13.9083C4.90109 13.5494 5.31663 12.9832 5.47943 12.314C5.64037 11.6524 5.53478 10.9668 5.18214 10.3834C4.87863 9.88123 4.42158 9.50403 3.8773 9.29993L4.99441 4.87926C5.36842 4.82167 5.73134 4.70676 6.08563 4.59425C6.61748 4.42536 7.11997 4.26585 7.49429 4.36556C7.89377 4.4719 8.25528 4.87003 8.638 5.29151C8.98057 5.66878 9.33482 6.05889 9.78371 6.31718C10.2409 6.58027 10.7642 6.69317 11.2702 6.80234C11.8233 6.92163 12.3456 7.03437 12.63 7.31674C12.9144 7.59915 13.0279 8.11774 13.1481 8.66677C13.2581 9.16919 13.3718 9.68871 13.6368 10.1427C13.8969 10.5883 14.2898 10.9401 14.6698 11.2802C15.0943 11.6602 15.4953 12.0191 15.6024 12.4157C15.7028 12.7875 15.5422 13.2862 15.3721 13.8143C15.2588 14.166 15.143 14.5264 15.085 14.8977L10.9048 15.939C10.6549 15.4237 10.2577 14.9927 9.75047 14.6953C9.07268 14.2977 8.27954 14.1861 7.51714 14.3809C6.76076 14.5741 6.12348 15.047 5.72271 15.7124C5.42401 16.2084 5.28245 16.7686 5.3067 17.3335L1.61479 18.2532L2.62257 14.265ZM9.72516 16.2328L6.48776 17.0392C6.56163 16.326 7.07372 15.6969 7.80944 15.5089C8.26837 15.3916 8.7457 15.4589 9.15369 15.6981C9.38579 15.8342 9.57946 16.0169 9.72516 16.2328Z" fill="#1D1D1D"/>
<path d="M9.3649 13.4097C10.9484 13.4097 12.2366 12.1307 12.2366 10.5585C12.2366 8.98638 10.9484 7.70732 9.3649 7.70732C7.78144 7.70732 6.49316 8.98638 6.49316 10.5585C6.49316 12.1307 7.78144 13.4097 9.3649 13.4097ZM9.3649 8.87217C10.3015 8.87217 11.0634 9.62865 11.0634 10.5585C11.0634 11.4884 10.3015 12.2449 9.3649 12.2449C8.42833 12.2449 7.6664 11.4884 7.6664 10.5585C7.6664 9.62865 8.42837 8.87217 9.3649 8.87217Z" fill="#1D1D1D"/>
<path d="M5.81006 6.39198H6.93115V7.55684H5.81006V6.39198Z" fill="#1D1D1D"/>
<path d="M12.1938 13.1675H13.315V14.3324H12.1938V13.1675Z" fill="#1D1D1D"/>
<path d="M3.38892 15.3525H4.51004V16.5173H3.38892V15.3525Z" fill="#1D1D1D"/>
</svg>
