<svg width="51" height="51" viewBox="0 0 51 51" fill="none" xmlns="http://www.w3.org/2000/svg">
<g clip-path="url(#clip0_93_1007)">
<g clip-path="url(#clip1_93_1007)">
<path d="M29.7908 13.0735L33.2166 15.5899C33.6023 15.8731 33.4074 16.4998 32.9198 16.5028L31.8447 16.5093C31.8436 16.5093 31.8427 16.5093 31.8416 16.5093C31.565 16.5093 31.3393 16.2871 31.3375 16.0125C31.3325 15.2093 30.6732 14.5606 29.8638 14.5672C29.0549 14.5721 28.4031 15.2273 28.408 16.0304C28.4177 17.5822 29.476 18.8876 30.9102 19.2896V19.3599C30.9102 20.1631 31.566 20.8143 32.3749 20.8143C33.1837 20.8143 33.8396 20.1631 33.8396 19.3599V19.2866C34.4102 19.1295 34.9327 18.8274 35.36 18.3977C36.0047 17.7494 36.3565 16.8908 36.3501 15.9776V15.9685C36.3428 14.9018 35.8227 13.8861 34.9589 13.2516L31.5331 10.7354C31.144 10.4495 31.3484 9.83368 31.8331 9.83368H32.9098C33.1878 9.83368 33.414 10.0579 33.414 10.3336C33.414 11.1368 34.0698 11.7879 34.8787 11.7879C35.6875 11.7879 36.3434 11.1368 36.3434 10.3336C36.3434 8.77407 35.2823 7.45665 33.8395 7.05313V6.98313C33.8395 6.17995 33.1836 5.52881 32.3748 5.52881C31.5659 5.52881 30.9101 6.17995 30.9101 6.98313V7.05119C29.4638 7.45248 28.3994 8.77155 28.3994 10.3336C28.3995 11.4093 28.9196 12.4335 29.7908 13.0735Z" fill="#1D1D1D"/>
<path d="M32.3758 25.4516C39.1976 25.4516 44.7474 19.9429 44.7474 13.1716C44.7474 6.40026 39.1975 0.891602 32.3758 0.891602C25.5541 0.891602 20.0042 6.40036 20.0042 13.1717C20.0042 19.943 25.5541 25.4516 32.3758 25.4516ZM32.3758 3.80024C37.5823 3.80024 41.818 8.00428 41.818 13.1717C41.818 18.339 37.5823 22.5431 32.3758 22.5431C27.1694 22.5431 22.9336 18.339 22.9336 13.1717C22.9336 8.00428 27.1694 3.80024 32.3758 3.80024Z" fill="#1D1D1D"/>
<path d="M48.9578 28.7355C47.3736 26.7105 44.5135 26.3295 42.4548 27.7476L36.8817 31.4494C36.1072 30.0177 34.5844 29.0417 32.8359 29.0417H28.8603C26.8536 27.173 24.1745 26.1121 21.4111 26.1121C19.337 26.1121 17.3194 26.6938 15.5766 27.7944C14.0063 28.7862 12.7217 30.1561 11.8391 31.7735L11.0928 32.2266L10.8994 31.6651C10.6377 30.9053 9.80534 30.4997 9.03993 30.7594L0.958273 33.5011C0.193163 33.7607 -0.215808 34.5878 0.0459022 35.3478L4.93568 49.548C5.19748 50.3083 6.03017 50.7132 6.79518 50.4537L14.8768 47.7121C15.5986 47.4672 16.0714 46.6851 15.773 45.8184L28.5969 45.4243C32.0892 45.4196 35.4383 44.3548 38.2832 42.3444L47.9539 35.5148C50.171 33.9479 50.6287 30.8698 48.9578 28.7355ZM7.23384 47.2311L3.29179 35.7833L8.60127 33.982C9.17323 35.6431 11.953 43.7156 12.5433 45.43L7.23384 47.2311ZM46.2556 33.1447L36.5849 39.9744C34.2323 41.6369 31.462 42.5156 28.5736 42.5156C28.5586 42.5156 28.5434 42.5158 28.5283 42.5163L14.7814 42.9387L12.0638 35.0463L13.7156 34.0434C13.7159 34.0432 13.7162 34.0429 13.7166 34.0426C13.9598 33.8949 14.1499 33.678 14.2659 33.4433C15.614 30.7153 18.3519 29.0205 21.4111 29.0205C23.6218 29.0205 25.675 29.8992 27.1926 31.4947C27.4721 31.7886 27.8737 31.9501 28.2575 31.9501H32.8359C33.7511 31.9501 34.4956 32.6889 34.4956 33.597C34.4956 34.4957 33.7635 35.244 32.8359 35.244H24.5716C23.7627 35.244 23.1069 35.8951 23.1069 36.6983C23.1069 37.5015 23.7628 38.1526 24.5716 38.1526H32.8359C34.0627 38.1526 35.2153 37.6783 36.0804 36.8181C36.6857 36.2174 37.1004 35.4784 37.2961 34.6733L44.0948 30.1575C44.103 30.1521 44.1111 30.1465 44.1192 30.1409C44.9209 29.5849 46.0314 29.7362 46.6446 30.5199C47.2912 31.3459 47.1144 32.5379 46.2556 33.1447Z" fill="#1D1D1D"/>
</g>
</g>
<defs>
<clipPath id="clip0_93_1007">
<rect width="49.9983" height="49.6407" fill="white" transform="translate(0.966797 0.891602)"/>
</clipPath>
<clipPath id="clip1_93_1007">
<rect width="49.9983" height="49.6407" fill="white" transform="translate(-0.0332031 0.891602)"/>
</clipPath>
</defs>
</svg>
