<svg width="20" height="18" viewBox="0 0 20 18" fill="none" xmlns="http://www.w3.org/2000/svg">
<path d="M19.8719 8.82917C19.7608 8.6904 19.592 8.60958 19.4134 8.60958H18.9298C18.9395 8.52 18.9447 8.42952 18.9447 8.33811C18.9447 8.01164 18.8812 7.69243 18.7584 7.39381C19.3721 6.84811 19.7259 6.07379 19.7259 5.23556C19.7259 3.8137 18.6929 2.62681 17.333 2.37582C17.0802 1.02559 15.8848 0 14.4527 0C13.0206 0 11.8251 1.02559 11.5723 2.37582C10.3847 2.59505 9.44653 3.52803 9.22787 4.70793C9.02163 4.67248 8.80972 4.65383 8.59348 4.65383C7.56101 4.65383 6.59702 5.07279 5.90337 5.8003L2.65469 2.57485C2.42591 2.3477 2.05491 2.3477 1.82609 2.57485C0.181493 4.20772 -0.117989 6.67375 0.958811 8.60958H0.585933C0.407384 8.60958 0.238561 8.6904 0.127393 8.82917C0.0162252 8.96789 -0.0251406 9.14939 0.0150143 9.32212L0.558004 11.6582C0.944944 13.3231 2.29662 14.5374 3.9452 14.7725V16.5599C3.9452 16.8811 4.20753 17.1416 4.53111 17.1416H15.4682C15.7918 17.1416 16.0542 16.8811 16.0542 16.5599V14.7725C17.7027 14.5374 19.0544 13.3231 19.4414 11.6582L19.9843 9.32212C20.0245 9.14939 19.9831 8.96789 19.8719 8.82917ZM12.109 3.49037C12.4326 3.49037 12.6949 3.22991 12.6949 2.90864C12.6949 1.94635 13.4834 1.16346 14.4527 1.16346C15.4219 1.16346 16.2104 1.94635 16.2104 2.90864C16.2104 3.22991 16.4727 3.49037 16.7963 3.49037C17.7656 3.49037 18.5541 4.27326 18.5541 5.23556C18.5541 5.85103 18.2351 6.40945 17.7007 6.72932C17.5615 6.81258 17.4635 6.94948 17.4299 7.10725C17.3963 7.26505 17.4303 7.4296 17.5235 7.56162C17.6866 7.79237 17.7729 8.0609 17.7729 8.33811C17.7729 8.43045 17.7632 8.52104 17.7451 8.60958H15.0386V7.09813L17.1213 5.71955C17.3906 5.54135 17.4633 5.18018 17.2838 4.91285C17.1043 4.64553 16.7405 4.57332 16.4713 4.75152L15.0386 5.69989V3.29646C15.0386 2.97519 14.7762 2.71473 14.4527 2.71473C14.1291 2.71473 13.8667 2.97519 13.8667 3.29646V5.69989L12.434 4.75156C12.1647 4.57336 11.8009 4.64557 11.6215 4.91289C11.4419 5.18021 11.5147 5.54139 11.784 5.71959L13.8667 7.09813V8.60958H12.2939C12.3007 8.51926 12.3043 8.42874 12.3043 8.33811C12.3043 6.94002 11.5158 5.72138 10.3572 5.0973C10.4285 4.19946 11.1867 3.49037 12.109 3.49037ZM8.59348 5.81729C9.99347 5.81729 11.1325 6.94813 11.1325 8.33811C11.1325 8.42882 11.1273 8.51941 11.1175 8.60958H8.73285L6.73268 6.62372C7.20891 6.11245 7.87713 5.81729 8.59348 5.81729ZM4.85528 7.56856V8.60958H3.8068L4.85528 7.56856ZM2.2715 8.48854C1.87788 7.96196 1.63519 7.36255 1.54196 6.74592H4.02668L2.2715 8.48854ZM6.02712 7.56856L7.07568 8.60958H6.02716V7.56856H6.02712ZM2.2708 3.8391L4.02668 5.58242H1.54215C1.63586 4.96412 1.87866 4.36401 2.2708 3.8391ZM14.8823 15.9781H5.11703V14.8147H14.8823V15.9781ZM18.2995 11.3966C17.991 12.7241 16.8267 13.6512 15.4682 13.6512H4.53111C3.17264 13.6512 2.00838 12.7241 1.69984 11.3966L1.32247 9.77304H18.6769L18.2995 11.3966Z" fill="#1D1D1D"/>
</svg>
