<svg width="20" height="20" viewBox="0 0 20 20" fill="none" xmlns="http://www.w3.org/2000/svg">
<path d="M17.6405 17.5162C17.6415 17.4901 17.6425 17.4635 17.6434 17.4379C17.6649 16.8392 17.6834 16.3222 18.1593 15.5454C18.5449 14.9159 18.7488 14.1939 18.7488 13.4575C18.7488 12.721 18.545 11.9991 18.1593 11.3696C17.7998 10.7827 17.6256 10.137 17.6414 9.45032C17.6584 8.71376 17.4713 7.98732 17.1004 7.34954C16.7296 6.71175 16.1894 6.18767 15.5385 5.83395C14.9316 5.5042 14.4554 5.03151 14.1234 4.42897C13.7671 3.78266 13.2392 3.2464 12.5969 2.87818C11.9545 2.50995 11.2226 2.32423 10.4809 2.3411C9.78937 2.35689 9.13891 2.18381 8.54785 1.82684C7.91387 1.44395 7.18665 1.2416 6.44494 1.2416C5.70323 1.2416 4.97601 1.44399 4.34199 1.82687C3.57298 2.29127 3.08836 2.31539 2.35864 2.34203L0 0V19.8563H19.9972L17.6405 17.5162ZM4.9509 2.82086C5.40137 2.54881 5.91798 2.40501 6.4449 2.40501C6.97182 2.40501 7.48843 2.54881 7.93891 2.82082C8.71331 3.28847 9.60138 3.5248 10.5078 3.50421C11.0346 3.49211 11.5547 3.62416 12.011 3.88573C12.4673 4.14731 12.8423 4.52833 13.0955 4.98753C13.5306 5.77694 14.1809 6.42252 14.976 6.85454C15.4385 7.10584 15.8222 7.47817 16.0857 7.93124C16.3492 8.38432 16.482 8.90037 16.4699 9.42371C16.4492 10.3234 16.6872 11.2053 17.1582 11.9742C17.4322 12.4214 17.577 12.9343 17.577 13.4575C17.577 13.9806 17.4322 14.4935 17.1582 14.9408C16.8048 15.5176 16.6399 16.0069 16.5589 16.4421L15.7604 15.6493C16.179 14.9983 16.4052 14.2371 16.4052 13.4574C16.4052 11.2122 14.5654 9.38548 12.3039 9.38548C11.5188 9.38548 10.7522 9.61001 10.0967 10.0254L9.90167 9.83184C10.3201 9.18095 10.5462 8.41984 10.5462 7.64035C10.5462 5.39507 8.7064 3.56839 6.44494 3.56839C5.65034 3.56839 4.89039 3.79138 4.23719 4.20726L3.44001 3.41579C3.87803 3.33524 4.37039 3.17143 4.9509 2.82086V2.82086ZM7.0308 6.98128V4.79041C8.17698 5.02231 9.08184 5.92074 9.31546 7.05872H7.10877L7.0308 6.98128ZM5.859 5.8177L5.09436 5.05842C5.33489 4.93405 5.59167 4.8435 5.859 4.7899V5.8177ZM9.31444 8.2221C9.26007 8.48631 9.16957 8.74187 9.04462 8.98088L8.28045 8.2221H9.31444ZM12.8898 12.799V10.6075C14.036 10.8394 14.9408 11.7378 15.1745 12.8758H12.9671L12.8898 12.799ZM11.718 11.6354L10.9536 10.8764C11.1944 10.7524 11.4518 10.6625 11.718 10.6085V11.6354ZM15.1734 14.0392C15.119 14.3035 15.0285 14.5593 14.9034 14.7984L14.1388 14.0392H15.1734ZM1.1718 18.6928V2.80895L17.1684 18.6928H1.1718Z" fill="#1D1D1D"/>
<path d="M8.20264 14.0392H9.37448V15.2026H8.20264V14.0392Z" fill="#1D1D1D"/>
<path d="M4.68726 10.5489H5.8591V11.7123H4.68726V10.5489Z" fill="#1D1D1D"/>
<path d="M3.51562 15.2026H4.68747V16.3661H3.51562V15.2026Z" fill="#1D1D1D"/>
</svg>
