<svg width="51" height="51" viewBox="0 0 51 51" fill="none" xmlns="http://www.w3.org/2000/svg">
<g clip-path="url(#clip0_148_91)">
<path d="M47.2833 8.78883C43.7065 8.78883 40.7966 5.89969 40.7966 2.34863V0.891602H11.1582V2.34863C11.1582 5.89988 8.24827 8.78883 4.67163 8.78883H3.2041V18.4783C3.2041 25.4411 5.31663 32.1456 9.31357 37.8668C13.3105 43.588 18.895 47.9017 25.4633 50.3413L25.9775 50.5323L26.4917 50.3413C33.0601 47.9017 38.6446 43.5881 42.6414 37.8668C46.6383 32.1456 48.7508 25.4411 48.7508 18.4783V8.78883H47.2833ZM45.8159 18.4783H45.8158C45.8158 24.8447 43.8841 30.9747 40.2295 36.2059C36.68 41.2871 31.7604 45.1541 25.9774 47.4158C20.1945 45.154 15.2748 41.2871 11.7252 36.2059C8.07074 30.9748 6.13916 24.8447 6.13916 18.4783V11.5897C10.1615 10.9624 13.3474 7.79922 13.9792 3.80567H37.9758C38.6075 7.79922 41.7935 10.9624 45.8159 11.5897V18.4783Z" fill="#1D1D1D"/>
<path d="M32.5261 14.5803L22.8118 24.2252L19.429 20.8666L13.2029 27.0483L22.8118 36.5885L38.7522 20.762L32.5261 14.5803ZM17.3537 27.0485L19.4291 24.9879L22.8119 28.3465L32.5262 18.7017L34.6016 20.7622L22.8119 32.4676L17.3537 27.0485Z" fill="#1D1D1D"/>
</g>
<defs>
<clipPath id="clip0_148_91">
<rect width="49.9984" height="49.6407" fill="white" transform="translate(0.978271 0.891602)"/>
</clipPath>
</defs>
</svg>
