<svg width="20" height="20" viewBox="0 0 20 20" fill="none" xmlns="http://www.w3.org/2000/svg">
<path d="M18.438 9.12121C17.6289 8.32653 16.6102 7.82012 15.5101 7.65398V0H10.0952C8.66693 0 7.47229 1.01162 7.19956 2.35103H5.91039V1.07802H0V2.24225H4.73777V3.61195H0V4.77618H5.91039V3.5153H7.19952C7.44315 4.7118 8.42237 5.64671 9.6467 5.83263V8.4074C8.98809 8.48259 8.3537 8.70291 7.78849 9.05664C7.08234 9.49856 6.51822 10.1266 6.15631 10.8732H5.22627V10.8737C3.84206 10.8844 2.53648 11.4453 1.54608 12.4567C1.12059 12.8912 0.777395 13.3837 0.524318 13.9148C0.209173 14.5761 0.0501936 15.3002 0.0339051 16.0316L0.0111324 17.0529C0.0110934 18.5987 1.27777 19.8563 2.83471 19.8563H17.2002C17.9546 19.8563 18.6604 19.5636 19.1877 19.0321C19.7111 18.5044 19.9994 17.8016 19.9994 17.0529V12.8113C19.9993 11.4207 19.4448 10.1101 18.438 9.12121ZM18.8267 12.8113V14.9217L17.6174 13.8935V12.8114C17.6174 11.2183 16.312 9.92217 14.7074 9.92217C14.1493 9.92217 13.6181 10.0787 13.1647 10.3599V9.05862C13.6534 8.8592 14.1709 8.75794 14.7074 8.75794C15.7993 8.75794 16.8313 9.1809 17.6133 9.94893C18.3957 10.7174 18.8267 11.734 18.8267 12.8113ZM10.4893 15.6045C10.4426 15.1805 10.345 14.7665 10.1996 14.3696H10.9603C12.0464 14.3696 13.1044 14.7493 13.9395 15.4388L14.1402 15.6046H10.4893V15.6045ZM15.9741 15.6045L14.6893 14.5436C13.6441 13.6806 12.3197 13.2054 10.9603 13.2054H9.60046C9.42034 12.9411 9.21559 12.6904 8.98669 12.4566C8.83993 12.3068 8.68611 12.1671 8.52631 12.0374H10.2331C12.4106 12.0374 14.524 12.808 16.182 14.2058L17.8271 15.6045H15.9741ZM16.4448 12.9262C15.5893 12.2906 14.6434 11.7932 13.6436 11.4473C13.9424 11.2174 14.3135 11.0864 14.7074 11.0864C15.6654 11.0864 16.4448 11.8602 16.4448 12.8113V12.9262ZM11.9921 11.0233C11.6052 10.957 11.2137 10.9125 10.8194 10.8903V1.16423H11.9921V11.0233ZM14.3375 7.60678C13.9366 7.6342 13.5449 7.70641 13.1647 7.8228V1.16423H14.3375V7.60678ZM8.31351 2.93319C8.31351 2.11155 8.88068 1.41903 9.6467 1.22108V4.64529C8.88071 4.44734 8.31351 3.75482 8.31351 2.93319ZM9.64674 9.58276V10.8731H7.51853C8.02692 10.185 8.79611 9.71756 9.64674 9.58276ZM2.38683 13.2682C3.16407 12.4745 4.18673 12.0374 5.26634 12.0374C6.34596 12.0374 7.36862 12.4745 8.1459 13.2682C8.78209 13.9179 9.18367 14.7318 9.30773 15.6045H8.07836C7.96711 15.0503 7.69802 14.5348 7.29331 14.1143C6.73813 13.5375 6.00405 13.2198 5.22631 13.2198C4.44856 13.2198 3.71444 13.5375 3.15931 14.1143C2.75459 14.5348 2.4855 15.0503 2.37429 15.6045H1.22504C1.34906 14.7318 1.75068 13.9179 2.38683 13.2682ZM6.86641 15.6045H3.58621C3.82561 14.9028 4.47985 14.384 5.22631 14.384C5.97277 14.3841 6.627 14.9028 6.86641 15.6045ZM18.8267 17.0529C18.8267 17.972 18.1123 18.6921 17.2002 18.6921H2.83471C1.92435 18.6921 1.18371 17.9567 1.18371 17.0529V16.7688H18.8267V16.8435V17.0529Z" fill="#1D1D1D"/>
</svg>
