<svg width="50" height="51" viewBox="0 0 50 51" fill="none" xmlns="http://www.w3.org/2000/svg">
<g clip-path="url(#clip0_34_124)">
<path d="M49.2188 29.0129C49.2188 25.6113 47.5695 22.3629 44.807 20.3238C44.2438 19.9066 43.5453 19.6777 42.8414 19.6777C41.9602 19.6777 41.1344 20.0301 40.5281 20.6293C40.4148 20.5348 40.3117 20.4309 40.1945 20.341C39.7609 20.0098 39.2406 19.8129 38.7062 19.7316L39.0508 15.9434C39.0586 15.8527 39.0625 15.7613 39.0625 15.6699C39.0625 14.0027 37.7062 12.6465 36.0391 12.6465H35.8359C34.1688 12.6465 32.8125 14.0027 32.8125 15.6699C32.8125 15.7613 32.8164 15.8527 32.825 15.9441L33.1711 19.7488C32.6758 19.8426 32.1969 20.034 31.7922 20.3355C31.6523 20.4402 31.5281 20.5605 31.3937 20.6707C31.3242 20.5988 31.2508 20.5316 31.175 20.4668C31.2195 20.2066 31.25 19.9434 31.25 19.6777C31.25 18.6855 30.9406 17.7363 30.3672 16.9434C30.9406 16.1504 31.25 15.202 31.25 14.209C31.25 11.534 28.9867 9.36602 26.2898 9.53008C25.7883 8.09258 24.6188 7.00898 23.1813 6.59102C22.2297 5.4043 20.7953 4.7457 19.2586 4.84258C18.6117 2.98867 16.8602 1.70898 14.8438 1.70898C13.1523 1.70898 11.6125 2.61367 10.7828 4.05508C8.71406 4.12461 6.92578 5.58477 6.41328 7.57383C3.99453 8.47617 2.34375 10.8176 2.34375 13.4277C2.34375 15.5207 3.37344 17.434 5.07734 18.5902C4.82031 19.177 4.6875 19.8113 4.6875 20.459C4.6875 21.8652 5.3125 23.1723 6.38516 24.0574C6.29531 24.4199 6.25 24.7848 6.25 25.1465C6.25 27.5402 8.05469 29.5215 10.375 29.8004L12.1031 34.6402C11.218 35.2926 10.4641 36.109 9.88359 37.0465L5.79063 36.1371C5.63516 36.1012 5.475 36.084 5.31406 36.084C4.10703 36.084 3.125 37.066 3.125 38.273V38.5824C3.125 38.8012 3.16719 39.009 3.22734 39.209H3.125C1.83281 39.209 0.78125 40.2605 0.78125 41.5527C0.78125 42.8449 1.83281 43.8965 3.125 43.8965H3.22734C3.16719 44.0965 3.125 44.3043 3.125 44.523V44.8324C3.125 46.0395 4.10703 47.0215 5.31406 47.0215C5.475 47.0215 5.63516 47.0043 5.78906 46.9691L9.88359 46.059C11.4 48.5074 14.1023 50.1465 17.1875 50.1465H17.3711C17.8055 50.1465 18.2453 50.1129 18.6773 50.0465L45.4672 45.9254C47.6406 45.5902 49.2188 43.752 49.2188 41.5527C49.2188 39.7941 48.2008 38.2809 46.6852 37.5676C48.3039 35.634 49.2188 33.1809 49.2188 30.6551V29.0129ZM39.2445 21.5824C41.5766 23.3652 42.9688 26.2051 42.9688 29.1809V32.0504C42.9688 33.652 42.5695 35.2199 41.8172 36.6191L35.5523 35.6551C35.2945 34.5215 35.1562 33.3637 35.1562 32.2012V29.0293C35.1562 28.2418 35.2352 27.4551 35.3547 26.6754C35.5461 26.6918 35.7367 26.709 35.9375 26.709C38.1648 26.709 39.8438 25.7012 39.8438 24.3652C39.8438 23.6277 39.3336 22.973 38.45 22.5434L38.5648 21.2793C38.8086 21.3285 39.043 21.427 39.2445 21.5824ZM35.8359 14.209H36.0398C36.8453 14.209 37.5008 14.8645 37.5008 15.6699C37.5008 15.7145 37.4992 15.759 37.4945 15.8027L36.7852 23.6051L37.3812 23.7965C38.0656 24.0152 38.2812 24.3035 38.2812 24.3652C38.2812 24.5598 37.45 25.1465 35.9375 25.1465C34.425 25.1465 33.5938 24.5598 33.5938 24.3652C33.5938 24.3035 33.8094 24.0152 34.4938 23.7957L35.0898 23.6043L34.3805 15.8027C34.3766 15.7582 34.375 15.7137 34.375 15.6699C34.375 14.8645 35.0305 14.209 35.8359 14.209ZM33.3125 21.3051L33.425 22.5434C32.5414 22.973 32.0312 23.6277 32.0312 24.3652C32.0312 25.2262 32.7336 25.9457 33.825 26.352C33.6852 27.2387 33.5938 28.134 33.5938 29.0293V32.2012C33.5938 33.2746 33.6969 34.3465 33.8969 35.4004L29.2914 34.6918C29.0406 33.8332 28.9062 32.948 28.9062 32.0496V29.1801C28.9062 26.209 30.3344 23.3699 32.7266 21.5871C32.9008 21.4574 33.1016 21.3621 33.3125 21.3051ZM24.8695 34.0113C24.4453 32.9379 24.2188 31.8137 24.2188 30.6551V29.0121C24.2188 26.1043 25.6312 23.3262 27.9961 21.5793C28.293 21.3605 28.6617 21.2402 29.0336 21.2402C29.5055 21.2402 29.9398 21.4301 30.2578 21.748C28.4156 23.7668 27.3438 26.4184 27.3438 29.1809V32.0504C27.3438 32.8559 27.4398 33.6527 27.6141 34.434L24.8695 34.0113ZM24.943 10.5379L25.0852 11.3418L25.882 11.1645C26.1242 11.1105 26.3469 11.084 26.5625 11.084C28.2859 11.084 29.6875 12.4855 29.6875 14.209C29.6875 15.0301 29.3688 15.8066 28.7906 16.3957L28.2531 16.9434L28.7906 17.491C29.3688 18.0801 29.6875 18.8566 29.6875 19.6777C29.6875 19.7012 29.6828 19.7246 29.6828 19.7488C29.4711 19.7066 29.2555 19.6777 29.0336 19.6777C28.3297 19.6777 27.6313 19.9066 27.068 20.323C25.6461 21.3723 24.5266 22.7449 23.7672 24.291C23.4711 23.3691 23.1602 22.4863 22.8398 21.648C23.5625 17.8309 26.243 15.6215 26.2703 15.5988L25.7812 14.9902L25.293 14.3801C25.1844 14.4668 23.0711 16.1926 21.8844 19.3059C20.2586 15.573 18.7242 13.1582 18.6258 13.0051L17.3109 13.8504C17.332 13.8824 18.5234 15.7566 19.9102 18.7402C17.5734 17.8605 14.918 18.1035 14.7656 18.1191L14.9211 19.6738C16.0961 19.5559 19.4242 19.6129 20.9789 21.1996C21.5266 22.5457 22.0664 24.0215 22.543 25.6027C20.168 24.3848 17.3344 24.3652 17.1875 24.3652V25.9277C17.2242 25.9277 20.7023 25.9512 22.7609 27.5879C22.6969 28.0582 22.6562 28.5332 22.6562 29.0129V30.6559C22.6562 31.7113 22.8188 32.7434 23.1203 33.7434L18.6773 33.0598C18.443 33.0238 18.2062 32.9996 17.9688 32.9824C16.2453 32.9824 14.8438 31.5699 14.8438 29.8348C14.8438 29.4707 14.9164 29.0973 15.0586 28.723L15.2867 28.1254L14.7453 27.7832C13.8289 27.2035 13.2812 26.2184 13.2812 25.1465C13.2812 24.5316 13.4617 23.9355 13.8031 23.4215L14.2898 22.6902L13.507 22.2926C11.9219 21.4863 10.9375 19.8863 10.9375 18.1152C10.9375 16.0363 12.3344 14.1848 14.3352 13.6121L14.8203 13.473L14.893 12.9738C15.1156 11.4512 16.4383 10.3027 17.9688 10.3027C17.9977 10.3027 18.0258 10.309 18.0539 10.3129C18.1086 10.3207 18.1641 10.3277 18.2195 10.3316L18.7797 10.377L19 9.85977C19.493 8.70508 20.6211 7.95898 21.875 7.95898C23.3891 7.95898 24.6789 9.04336 24.943 10.5379ZM11.4883 28.2715H10.9375C9.21406 28.2715 7.8125 26.8699 7.8125 25.1465C7.8125 24.7816 7.88516 24.4082 8.02734 24.0355L8.25625 23.4379L7.71484 23.0957C6.79766 22.516 6.25 21.5309 6.25 20.459C6.25 19.8441 6.43047 19.248 6.77188 18.734L7.25859 18.0027L6.47578 17.6051C4.89062 16.7988 3.90625 15.1988 3.90625 13.4277C3.90625 11.3488 5.30312 9.49727 7.30312 8.92461L7.78828 8.78555L7.86094 8.28633C8.08438 6.76367 9.40703 5.61523 10.9375 5.61523C10.9672 5.61523 10.9961 5.62148 11.025 5.62539C11.0781 5.63242 11.1312 5.63945 11.1859 5.64414L11.7484 5.69102L11.9695 5.17148C12.4617 4.01758 13.5898 3.27148 14.8438 3.27148C16.3578 3.27148 17.6477 4.35586 17.9117 5.85039L18.0539 6.6543L18.8508 6.47695C19.093 6.42305 19.3156 6.39648 19.5312 6.39648C19.8906 6.39648 20.232 6.47539 20.5586 6.58945C19.4102 6.92539 18.4211 7.68789 17.8141 8.74258C15.7453 8.81211 13.957 10.2723 13.4445 12.2613C11.0258 13.1637 9.375 15.5051 9.375 18.1152C9.375 20.2082 10.4047 22.1215 12.1086 23.2777C11.8516 23.8645 11.7188 24.4988 11.7188 25.1465C11.7188 26.5527 12.3438 27.8598 13.4164 28.7457C13.3266 29.1082 13.2812 29.4723 13.2812 29.834C13.2812 31.2066 13.8719 32.4402 14.807 33.3012C14.343 33.4355 13.8969 33.6098 13.4688 33.8168L11.4883 28.2715ZM4.6875 38.5824V38.273C4.6875 37.8809 5.06719 37.5785 5.45078 37.6613L9.16875 38.4879C9.07812 38.7238 8.99687 38.9637 8.92734 39.209H5.31406C4.96875 39.209 4.6875 38.9277 4.6875 38.5824ZM2.34375 41.5527C2.34375 41.1223 2.69453 40.7715 3.125 40.7715H5.31406H8.63281C8.61016 41.0293 8.59375 41.2887 8.59375 41.5527C8.59375 41.8168 8.61016 42.0762 8.63359 42.334H5.31406H3.125C2.69453 42.334 2.34375 41.9832 2.34375 41.5527ZM5.44922 45.4441C5.07891 45.5238 4.6875 45.2238 4.6875 44.8324V44.523C4.6875 44.1777 4.96875 43.8965 5.31406 43.8965H8.92656C8.99609 44.1418 9.07812 44.3816 9.16797 44.6176L5.44922 45.4441ZM47.6562 41.5527C47.6562 42.9754 46.6359 44.1645 45.2305 44.3809L18.4414 48.502C18.0867 48.5566 17.7266 48.584 17.3711 48.584H17.1875C13.3109 48.584 10.1562 45.4293 10.1562 41.5527C10.1562 37.6762 13.3109 34.5215 17.1875 34.5215H17.3711C17.7266 34.5215 18.0867 34.5488 18.4406 34.6027L45.2297 38.7238C46.6359 38.941 47.6562 40.1301 47.6562 41.5527ZM47.6562 30.6551C47.6562 33.0582 46.6836 35.3832 44.9914 37.1066L43.4391 36.8676C44.1523 35.3691 44.5312 33.7262 44.5312 32.0496V29.1801C44.5312 26.4035 43.4734 23.7387 41.6562 21.7168C41.9719 21.4191 42.3906 21.2402 42.8414 21.2402C43.2141 21.2402 43.582 21.3605 43.8789 21.5809C46.2438 23.3262 47.6562 26.1051 47.6562 29.0129V30.6551Z" fill="#60A00C"/>
<path d="M16.4062 37.6465H17.9688V45.459H16.4062V37.6465Z" fill="#60A00C"/>
<path d="M22.6562 37.6465H24.2188V45.459H22.6562V37.6465Z" fill="#60A00C"/>
<path d="M28.9062 37.6465H30.4688V45.459H28.9062V37.6465Z" fill="#60A00C"/>
<path d="M35.1562 39.209H36.7188V43.8965H35.1562V39.209Z" fill="#60A00C"/>
<path d="M41.4062 39.9902H42.9688V43.1152H41.4062V39.9902Z" fill="#60A00C"/>
</g>
<defs>
<clipPath id="clip0_34_124">
<rect width="50" height="50" fill="white" transform="translate(0 0.927734)"/>
</clipPath>
</defs>
</svg>
