<svg width="15" height="20" viewBox="0 0 15 20" fill="none" xmlns="http://www.w3.org/2000/svg">
<path d="M14.296 3.30126C14.1687 3.16522 13.9837 3.0977 13.7979 3.11945L13.1414 3.19648C12.7623 2.00766 11.6504 1.1683 10.3512 1.1683C10.1665 1.1683 9.98222 1.18614 9.8 1.22155C9.17322 0.44952 8.2397 0 7.2263 0C6.2129 0 5.27937 0.44952 4.6526 1.22155C4.47038 1.18614 4.28613 1.1683 4.10141 1.1683C2.80219 1.1683 1.69028 2.0077 1.31123 3.19648L0.654652 3.11949C0.468917 3.09766 0.283884 3.16529 0.156623 3.3013C0.0293617 3.43735 -0.0248552 3.62552 0.0106905 3.80783L2.74497 17.8275C2.76802 17.9456 2.82751 18.052 2.91293 18.1342L2.9125 18.1346C4.06657 19.2448 5.59858 19.8563 7.2263 19.8563C8.85402 19.8563 10.386 19.2448 11.5401 18.1346L11.5397 18.1341C11.6251 18.052 11.6846 17.9455 11.7077 17.8274L14.4419 3.80779C14.4775 3.62548 14.4233 3.43731 14.296 3.30126ZM4.10141 2.33176C4.30046 2.33176 4.50018 2.3672 4.69494 2.43713C4.95716 2.53133 5.24977 2.42891 5.39468 2.19245C5.78963 1.54813 6.47437 1.16345 7.2263 1.16345C7.97823 1.16345 8.66297 1.54813 9.05795 2.19245C9.20283 2.42891 9.49548 2.53125 9.7577 2.43713C9.95245 2.3672 10.1522 2.33176 10.3512 2.33176C11.057 2.33176 11.6709 2.74533 11.9494 3.35393C11.2726 3.47892 10.6229 3.69071 10.0121 3.98382C9.31232 3.18833 8.30501 2.72605 7.2263 2.72605C6.14575 2.72605 5.13688 3.18988 4.43702 3.98786C3.82396 3.69385 3.17167 3.48009 2.50279 3.35494C2.78106 2.74579 3.39522 2.33176 4.10141 2.33176ZM7.22614 15.6342C7.47555 15.9584 7.74976 16.2612 8.04553 16.5405C7.79483 16.6734 7.51387 16.7457 7.2263 16.7457C6.93865 16.7457 6.65765 16.6734 6.40691 16.5404C6.70265 16.2612 6.97678 15.9583 7.22614 15.6342ZM7.22149 6.24822C6.72991 5.60998 6.13837 5.04707 5.4762 4.58991C5.9431 4.1443 6.56527 3.88951 7.2263 3.88951C7.88581 3.88951 8.50665 4.1431 8.97315 4.58684C8.64727 4.81182 8.33657 5.06289 8.04377 5.33956C7.74355 5.62325 7.4691 5.92703 7.22149 6.24822ZM1.31357 4.36835L1.84926 4.43117C3.77677 4.65727 5.46796 5.69682 6.5398 7.30056C6.15333 8.02124 5.88334 8.80402 5.74069 9.62898C5.44745 11.3248 5.73284 13.0685 6.54406 14.5799C5.85521 15.6079 4.88982 16.4204 3.76216 16.923L1.31357 4.36835ZM4.46272 17.8815C4.8072 17.7148 5.13778 17.5231 5.45222 17.3087C5.95931 17.6942 6.58249 17.9092 7.22626 17.9092C7.87003 17.9092 8.49321 17.6942 9.00026 17.3087C9.31474 17.5231 9.64532 17.7148 9.9898 17.8816C8.32607 18.9602 6.12653 18.9602 4.46272 17.8815ZM10.6902 16.924C7.95319 15.7139 6.37648 12.8279 6.89565 9.8258C7.38672 6.98608 9.73383 4.76772 12.6033 4.43117L13.139 4.36835L10.6902 16.924Z" fill="#1D1D1D"/>
<path d="M11.1325 7.21341C11.4561 7.21341 11.7184 6.95296 11.7184 6.63167C11.7184 6.31038 11.4561 6.04993 11.1325 6.04993C10.809 6.04993 10.5466 6.31038 10.5466 6.63167C10.5466 6.95296 10.809 7.21341 11.1325 7.21341Z" fill="#1D1D1D"/>
<path d="M8.9841 9.54031C9.30769 9.54031 9.57001 9.27987 9.57001 8.95859C9.57001 8.63731 9.30769 8.37686 8.9841 8.37686C8.66051 8.37686 8.39819 8.63731 8.39819 8.95859C8.39819 9.27987 8.66051 9.54031 8.9841 9.54031Z" fill="#1D1D1D"/>
<path d="M9.76535 13.0307C10.0889 13.0307 10.3513 12.7703 10.3513 12.449C10.3513 12.1277 10.0889 11.8672 9.76535 11.8672C9.44176 11.8672 9.17944 12.1277 9.17944 12.449C9.17944 12.7703 9.44176 13.0307 9.76535 13.0307Z" fill="#1D1D1D"/>
<path d="M3.51537 7.60123C3.83896 7.60123 4.10129 7.34078 4.10129 7.0195C4.10129 6.69822 3.83896 6.43777 3.51537 6.43777C3.19177 6.43777 2.92944 6.69822 2.92944 7.0195C2.92944 7.34078 3.19177 7.60123 3.51537 7.60123Z" fill="#1D1D1D"/>
<path d="M4.29663 12.6429C4.62024 12.6429 4.88257 12.3824 4.88257 12.0611C4.88257 11.7399 4.62024 11.4794 4.29663 11.4794C3.97303 11.4794 3.71069 11.7399 3.71069 12.0611C3.71069 12.3824 3.97303 12.6429 4.29663 12.6429Z" fill="#1D1D1D"/>
</svg>
